<?xml version="1.0" encoding="UTF-8"?>
<svg height="128px" viewBox="0 0 128 128" width="128px" xmlns="http://www.w3.org/2000/svg">
    <path d="m 19.195312 38.503906 h 79.625 c 5.039063 0 9.121094 4.085938 9.121094 9.121094 v 33.316406 c 0 5.039063 -4.082031 9.121094 -9.121094 9.121094 h -79.625 c -5.039062 0 -9.121093 -4.082031 -9.121093 -9.121094 v -33.316406 c 0 -5.035156 4.082031 -9.121094 9.121093 -9.121094 z m 0 0" fill="none" stroke="#9d2929" stroke-linecap="round" stroke-miterlimit="14.5" stroke-width="8"/>
    <g fill="#9d2929" fill-rule="evenodd">
        <path d="m 23.988281 47.5625 h 2.375 c 2.539063 0 4.597657 2.0625 4.597657 4.601562 v 24.238282 c 0 2.542968 -2.058594 4.601562 -4.597657 4.601562 h -2.375 c -2.539062 0 -4.601562 -2.058594 -4.601562 -4.601562 v -24.238282 c 0 -2.539062 2.0625 -4.601562 4.601562 -4.601562 z m 0 0"/>
        <path d="m 118.183594 52.71875 h 2.335937 c 0.761719 0 1.375 0.613281 1.375 1.375 v 20.382812 c 0 0.757813 -0.613281 1.375 -1.375 1.375 h -2.335937 c -0.757813 0 -1.375 -0.617187 -1.375 -1.375 v -20.382812 c 0 -0.761719 0.617187 -1.375 1.375 -1.375 z m 0 0" stroke="#9d2929" stroke-linecap="round" stroke-miterlimit="14.5" stroke-width="5.312"/>
    </g>
</svg>
