<?xml version="1.0" encoding="UTF-8"?>
<svg height="128px" viewBox="0 0 128 128" width="128px" xmlns="http://www.w3.org/2000/svg" xmlns:xlink="http://www.w3.org/1999/xlink">
    <radialGradient id="a" cx="47.007362" cy="236.868973" gradientTransform="matrix(1 0 0 1.644028 0 -152.550217)" gradientUnits="userSpaceOnUse" r="30.623999">
        <stop offset="0" stop-color="#ffffff"/>
        <stop offset="1" stop-opacity="0.643137"/>
    </radialGradient>
    <linearGradient id="b" gradientTransform="matrix(0 -1.233617 1.007986 0 -184.642508 120.037987)" gradientUnits="userSpaceOnUse" x1="0.221761" x2="93.792999" y1="236.237167" y2="236.237167">
        <stop offset="0.487966" stop-color="#ffffff" stop-opacity="0"/>
        <stop offset="1" stop-color="#ffffff"/>
    </linearGradient>
    <g fill-rule="evenodd">
        <path d="m 24.316406 17.285156 h 79.632813 c 6.429687 0 11.640625 5.210938 11.640625 11.636719 v 74.433594 c 0 6.429687 -5.210938 11.640625 -11.640625 11.640625 h -79.632813 c -6.429687 0 -11.640625 -5.210938 -11.640625 -11.640625 v -74.433594 c 0 -6.425781 5.210938 -11.636719 11.640625 -11.636719 z m 0 0" fill="#566756"/>
        <path d="m 26.332031 12.484375 h 75.585938 c 7.542969 0 13.660156 6.117187 13.660156 13.664063 v 70.382812 c 0 7.546875 -6.117187 13.664062 -13.660156 13.664062 h -75.585938 c -7.546875 0 -13.664062 -6.117187 -13.664062 -13.664062 v -70.382812 c 0 -7.546876 6.117187 -13.664063 13.664062 -13.664063 z m 0 0" fill="#6c826c"/>
        <path d="m 45.302386 186.69934 c -14.161556 -0.037301 -19.173478 6.341091 -20.032131 9.437036 l -5.372805 19.375934 c -3.027064 15.432249 -3.325726 16.724204 -3.33817 26.910642 c 0 24.642092 13.632676 44.618225 30.447969 44.618225 c 0.525769 0 1.048428 -0.020346 1.567975 -0.057646 c 16.087304 -1.197009 28.879993 -20.691626 28.879993 -44.560579 c 0 -1.278391 -0.027999 -2.492354 -0.080887 -3.665626 c -0.385772 -8.206118 -2.031524 -14.309842 -3.919939 -24.472543 l -3.907495 -16.066359 c -0.388882 -1.597141 -8.87275 -11.481784 -24.24451 -11.519084 z m 0 0" fill="#218ccc" stroke="#000000" stroke-linecap="round" stroke-linejoin="round" stroke-miterlimit="14.5" stroke-opacity="0.992157" stroke-width="0.35067" transform="matrix(1.2556 0 0 1.151961 -5.3348 -209.339817)"/>
        <path d="m 45.302386 186.69934 c -14.161556 -0.037301 -19.173478 6.341091 -20.032131 9.437036 l -5.372805 19.375934 c -3.027064 15.432249 -3.325726 16.724204 -3.33817 26.910642 c 0 24.642092 13.632676 44.618225 30.447969 44.618225 c 0.525769 0 1.048428 -0.020346 1.567975 -0.057646 c 16.087304 -1.197009 28.879993 -20.691626 28.879993 -44.560579 c 0 -1.278391 -0.027999 -2.492354 -0.080887 -3.665626 c -0.385772 -8.206118 -2.031524 -14.309842 -3.919939 -24.472543 l -3.907495 -16.066359 c -0.388882 -1.597141 -8.87275 -11.481784 -24.24451 -11.519084 z m 0 0" fill="url(#a)" stroke="#000000" stroke-linecap="round" stroke-linejoin="round" stroke-miterlimit="14.5" stroke-opacity="0.992157" stroke-width="0.35067" transform="matrix(1.2556 0 0 1.151961 -5.3348 -209.339817)"/>
        <path d="m 51.136719 7.726562 c -14.410157 0 -21.976563 6.046876 -22.308594 7.738282 l -5.808594 29.414062 c -5.433593 27.070313 -1.546875 9.164063 -2.992187 24.167969 c 0 27.890625 14.976562 50.5 33.453125 50.5 c 18.476562 0 33.453125 -22.609375 33.453125 -50.5 c -0.847656 -11.222656 -1.59375 -8.988281 -3.460938 -24.605469 l -4.28125 -25.613281 c -0.308594 -1.847656 -13.648437 -11.101563 -28.054687 -11.101563 z m 0 0" fill="url(#b)"/>
        <g stroke="#000000" stroke-linejoin="round" stroke-miterlimit="14.5">
            <path d="m 17.679262 232.141568 l 57.448881 -5.852794" stroke-linecap="square" stroke-width="1.43318" transform="matrix(1.2556 0 0 1.151961 -5.3348 -209.339817)"/>
            <path d="m 48.276562 228.93033 l -1.959969 -40.576203" fill="#ffffff" stroke-linecap="round" stroke-width="1.41903" transform="matrix(1.2556 0 0 1.151961 -5.3348 -209.339817)"/>
            <path d="m 37.021954 199.862059 l 8.273962 -0.000672 l -0.000946 20.666368 l -8.270296 0.00088 z m 0 0" fill="#6c826c" stroke-linecap="square" stroke-opacity="0.992157" stroke-width="1.604" transform="matrix(1.062261 -0.0603443 0.0603443 1.062261 -2.215631 -188.837147)"/>
        </g>
        <path d="m 102.988281 57.214844 c -2.960937 -1.242188 -5.554687 -1.738282 -5.820312 -1.105469 l -2.167969 5.15625 c -2.800781 -0.519531 -5.667969 -0.570313 -8.488281 -0.152344 l -2.070313 -5.074219 c -0.257812 -0.632812 -2.859375 -0.167968 -5.832031 1.046876 c -2.96875 1.210937 -5.15625 2.695312 -4.898437 3.328124 l 2.003906 4.914063 c -2.410156 1.65625 -4.527344 3.707031 -6.265625 6.066406 l -4.796875 -2.015625 c -0.628906 -0.265625 -2.140625 1.902344 -3.382813 4.859375 c -1.246093 2.960938 -1.738281 5.554688 -1.105469 5.820313 l 4.585938 1.929687 c -0.597656 2.964844 -0.683594 6.011719 -0.25 9 l -4.40625 1.796875 c -0.632812 0.257813 -0.167969 2.859375 1.042969 5.832032 c 1.214843 2.96875 2.699219 5.15625 3.332031 4.894531 l 4.199219 -1.710938 c 1.761719 2.574219 3.972656 4.800781 6.523437 6.585938 l -1.761718 4.1875 c -0.265626 0.628906 1.90625 2.140625 4.863281 3.382812 c 2.960937 1.246094 5.554687 1.738281 5.820312 1.105469 l 1.792969 -4.273438 c 3.019531 0.507813 6.109375 0.476563 9.121094 -0.097656 l 1.808594 4.441406 c 0.261718 0.632813 2.863281 0.167969 5.832031 -1.042968 c 2.972656 -1.210938 5.15625 -2.699219 4.898437 -3.332032 l -1.941406 -4.765624 c 2.339844 -1.746094 4.375 -3.871094 6.019531 -6.289063 l 4.980469 2.09375 c 0.632812 0.265625 2.140625 -1.90625 3.382812 -4.863281 c 1.246094 -2.960938 1.738282 -5.554688 1.109376 -5.820313 l -5.140626 -2.160156 c 0.441407 -2.792969 0.425782 -5.640625 -0.039062 -8.425781 l 5.246094 -2.140625 c 0.632812 -0.257813 0.171875 -2.859375 -1.039063 -5.828125 c -1.214843 -2.972656 -2.699219 -5.15625 -3.335937 -4.898438 l -5.253906 2.140625 c -1.625 -2.3125 -3.613282 -4.34375 -5.886719 -6.011719 l 2.179687 -5.191406 c 0.265625 -0.628906 -1.902344 -2.136718 -4.859375 -3.382812 z m -6.128906 14.574218 c 8.210937 3.453126 12.039063 12.988282 8.546875 21.296876 c -3.492188 8.308593 -12.984375 12.246093 -21.195312 8.792968 c -8.214844 -3.453125 -12.042969 -12.988281 -8.546876 -21.296875 c 3.492188 -8.308593 12.980469 -12.246093 21.195313 -8.792969 z m 0 0"/>
        <path d="m 102.99606283023 53.46085216601 c -2.95702980647 -1.2421876224 -5.55468510009 -1.73437544263 -5.82031060702 -1.10546921427 l -2.1679679185 5.15624850144 c -2.79687303903 -0.51562507171 -5.66406004816 -0.56640578325 -8.48827765508 -0.15234324245 l -2.06640538759 -5.07031080485 c -0.26171929835 -0.63671864552 -2.85937459197 -0.1679691846 -5.83202923276 1.04296766133 c -2.97265574862 1.21093795376 -5.15624850144 2.69531161595 -4.89843541167 3.33203026147 l 1.9999987339 4.91015403741 c -2.40624885754 1.66015637178 -4.5234360645 3.71093692505 -6.26171660788 6.06640507105 l -4.79687288076 -2.01562467605 c -0.63281243694 -0.26562550693 -2.14062445844 1.90234241157 -3.38281097301 4.86327953445 c -1.24609383098 2.95702980647 -1.73828054338 5.55468510009 -1.10937542285 5.82031060702 l 4.58984271819 1.92577966305 c -0.6015627683 2.96874954004 -0.68749935706 6.0117170431 -0.25390577336 9.00390383462 l -4.40234249069 1.7929674635 c -0.63671864552 0.26171929835 -0.1679691846 2.85937459197 1.04296766133 5.83202923276 c 1.21093795376 2.97265574862 2.69531161595 5.15624850144 3.33203026147 4.89843541167 l 4.19531122029 -1.71093597549 c 1.76562400344 2.57031072573 3.97265511557 4.80077908934 6.5234347984 6.5820279271 l -1.75781158628 4.18749880313 c -0.2656243991 0.63281243694 1.9023435194 2.14062445844 4.86327953445 3.38671718159 c 2.95702980647 1.2421876224 5.55077889151 1.7343743348 5.81640439844 1.10546921427 l 1.79687367208 -4.27343649972 c 3.01953025158 0.50390644597 6.10546715685 0.4726556695 9.12109119985 -0.09765632233 l 1.80859229782 4.43749836791 c 0.25781308977 0.63281243694 2.85937459197 0.1679691846 5.83202923276 -1.04296766133 c 2.97265574862 -1.21093795376 5.15624850144 -2.69531161595 4.8984365195 -3.33203026147 l -1.94531181378 -4.76171700354 c 2.33984220385 -1.74999916912 4.3749979228 -3.87499879324 6.02343456101 -6.29296627652 l 4.98046689968 2.09374884765 c 0.62890622836 0.2656243991 2.14062445844 -1.9023435194 3.38281208084 -4.86327953445 c 1.24609272315 -2.95702980647 1.73828054338 -5.55468510009 1.10546810644 -5.81640439844 l -5.13671745854 -2.16015550134 c 0.43749979228 -2.79687414686 0.42578116654 -5.64062279668 -0.0390620858 -8.42968452638 l 5.24609129878 -2.13671714203 c 0.63281243694 -0.25781308977 0.1679691846 -2.85937459197 -1.04296766133 -5.83202923276 c -1.21093684593 -2.97265574862 -2.69921782453 -5.15624850144 -3.33203026147 -4.89843541167 l -5.25390482377 2.14452955919 c -1.62499938673 -2.31640495237 -3.61327949489 -4.34765446274 -5.89062236146 -6.01562214385 l 2.18359275282 -5.18749817008 c 0.26562550693 -0.63281243694 -1.90234241157 -2.14062445844 -4.86327953445 -3.38671718159 z m -6.1289033005 14.5742126612 c 8.21483973099 3.45312383528 12.04296402127 12.9882764681 8.55077810019 21.29686742067 c -3.49218702891 8.30859095257 -12.98437025952 12.24608908309 -21.19921109834 8.79296524781 s -12.03905892052 -12.9882764681 -8.54687189161 -21.29686742067 c 3.49218592108 -8.30858984474 12.98437025952 -12.24608908309 21.19530488976 -8.79296524781 z m 0 0" fill="#ffffff" stroke="#000000" stroke-linecap="round" stroke-linejoin="round" stroke-miterlimit="14.5" stroke-width="0.553915"/>
    </g>
</svg>
