<?xml version="1.0" encoding="UTF-8" standalone="no"?>
<svg
   width="3826.4495"
   height="1554.6692"
   viewBox="0 0 3826.4495 1554.6692"
   version="1.1"
   id="svg355"
   sodipodi:docname="keyboard.svg"
   inkscape:version="1.3.2 (091e20ef0f, 2023-11-25)"
   xmlns:inkscape="http://www.inkscape.org/namespaces/inkscape"
   xmlns:sodipodi="http://sodipodi.sourceforge.net/DTD/sodipodi-0.dtd"
   xmlns="http://www.w3.org/2000/svg"
   xmlns:svg="http://www.w3.org/2000/svg"
   xmlns:rdf="http://www.w3.org/1999/02/22-rdf-syntax-ns#"
   xmlns:cc="http://creativecommons.org/ns#">
  <defs
     id="defs355" />
  <sodipodi:namedview
     id="namedview355"
     pagecolor="#ffffff"
     bordercolor="#000000"
     borderopacity="0.25"
     inkscape:showpageshadow="2"
     inkscape:pageopacity="0.0"
     inkscape:pagecheckerboard="false"
     inkscape:deskcolor="#d1d1d1"
     inkscape:zoom="0.31736773"
     inkscape:cx="1602.2423"
     inkscape:cy="866.50272"
     inkscape:window-width="1920"
     inkscape:window-height="998"
     inkscape:window-x="0"
     inkscape:window-y="0"
     inkscape:window-maximized="1"
     inkscape:current-layer="svg355" />
  <path
     fill-rule="nonzero"
     fill="#ffffff"
     fill-opacity="1"
     d="M 0,1554.6692 H 3826.4496 V 0 H 0 Z m 0,0"
     id="path1"
     style="stroke-width:0.658894;fill:none"
     inkscape:label="path1" />
  <path
     fill-rule="nonzero"
     fill="#000000"
     fill-opacity="1"
     d="m 94.46161,514.0406 h 301.91407 c 12.74609,0 23.07812,10.3281 23.07812,23.0703 v 157.7617 c 0,12.7422 -10.33203,23.0743 -23.07812,23.0743 H 94.46161 c -6.12109,0 -11.99218,-2.4297 -16.32031,-6.7579 -4.32422,-4.3281 -6.75781,-10.1953 -6.75781,-16.3164 V 537.1109 c 0,-6.1211 2.43359,-11.9922 6.75781,-16.3086 4.32813,-4.332 10.19922,-6.7617 16.32031,-6.7617 z m 0,-7.0586 c -7.99218,0 -15.66015,3.168 -21.30859,8.8281 -5.65234,5.6524 -8.82813,13.3086 -8.82813,21.3008 v 157.7617 c 0,7.9922 3.17579,15.6563 8.82813,21.3086 5.64844,5.6524 13.31641,8.8242 21.30859,8.8242 h 301.91407 c 16.64453,0 30.13671,-13.4921 30.13671,-30.1328 V 537.1109 c 0,-16.6406 -13.49218,-30.1289 -30.13671,-30.1289 z m 0,0"
     id="path3" />
  <path
     fill-rule="nonzero"
     fill="#000000"
     fill-opacity="1"
     d="m 1511.3757,512.732 h 165.832 c 12.7383,0 23.0782,10.3281 23.0782,23.0781 V 693.564 c 0,12.7461 -10.3399,23.0782 -23.0782,23.0782 h -165.832 c -6.1289,0 -11.9883,-2.4336 -16.3203,-6.7578 -4.3281,-4.3282 -6.7578,-10.1993 -6.7578,-16.3204 V 535.8101 c 0,-6.1211 2.4297,-11.9882 6.7578,-16.3203 4.332,-4.3281 10.1914,-6.7578 16.3203,-6.7578 z m 0,-7.0625 c -8,0 -15.6601,3.1797 -21.3086,8.832 -5.6601,5.6485 -8.832,13.3086 -8.832,21.3086 V 693.564 c 0,7.9922 3.1719,15.6602 8.832,21.3086 5.6485,5.6524 13.3086,8.8282 21.3086,8.8282 h 165.832 c 16.6407,0 30.1289,-13.4922 30.1289,-30.1368 V 535.8101 c 0,-16.6484 -13.4882,-30.1406 -30.1289,-30.1406 z m 0,0"
     id="path4" />
  <path
     fill-rule="nonzero"
     fill="#000000"
     fill-opacity="1"
     d="m 487.23114,512.732 h 165.83204 c 12.74609,0 23.07812,10.3281 23.07812,23.0781 V 693.564 c 0,12.7461 -10.33203,23.0782 -23.07812,23.0782 H 487.23114 c -6.12109,0 -11.99218,-2.4336 -16.3164,-6.7578 -4.32813,-4.3282 -6.76172,-10.1993 -6.76172,-16.3204 V 535.8101 c 0,-6.1211 2.43359,-11.9882 6.76172,-16.3203 4.32422,-4.3281 10.19531,-6.7578 16.3164,-6.7578 z m 0,-7.0625 c -7.99218,0 -15.66015,3.1797 -21.30859,8.832 -5.65234,5.6485 -8.82812,13.3086 -8.82812,21.3086 V 693.564 c 0,7.9922 3.17578,15.6602 8.82812,21.3086 5.64844,5.6524 13.31641,8.8282 21.30859,8.8282 h 165.83204 c 16.64453,0 30.13671,-13.4922 30.13671,-30.1368 V 535.8101 c 0,-16.6484 -13.49218,-30.1406 -30.13281,-30.1406 z m 0,0"
     id="path5" />
  <path
     fill-rule="nonzero"
     fill="#000000"
     fill-opacity="1"
     d="m 743.2663,512.732 h 165.83203 c 12.7461,0 23.07814,10.3281 23.07814,23.0781 V 693.564 c 0,12.7461 -10.33204,23.0782 -23.07814,23.0782 H 743.2663 c -6.12109,0 -11.99219,-2.4336 -16.31641,-6.7578 -4.32812,-4.3282 -6.76171,-10.1993 -6.76171,-16.3204 V 535.8101 c 0,-6.1211 2.43359,-11.9882 6.76171,-16.3203 4.32422,-4.3281 10.19532,-6.7578 16.31641,-6.7578 z m 0,-7.0625 c -7.99219,0 -15.65625,3.1797 -21.30859,8.832 -5.65235,5.6485 -8.82813,13.3086 -8.82813,21.3086 V 693.564 c 0,7.9922 3.17578,15.6602 8.82813,21.3086 5.65234,5.6524 13.3164,8.8282 21.30859,8.8282 h 165.83203 c 16.64844,0 30.13674,-13.4922 30.13674,-30.1368 V 535.8101 c 0,-16.6484 -13.4883,-30.1406 -30.13283,-30.1406 z m 0,0"
     id="path6" />
  <path
     fill-rule="nonzero"
     fill="#000000"
     fill-opacity="1"
     d="m 999.30537,512.732 h 165.83203 c 12.7383,0 23.0703,10.3281 23.0703,23.0781 V 693.564 c 0,12.7461 -10.332,23.0782 -23.0703,23.0782 H 999.30537 c -6.1289,0 -11.9883,-2.4336 -16.3203,-6.7578 -4.3281,-4.3282 -6.7578,-10.1993 -6.7578,-16.3204 V 535.8101 c 0,-6.1211 2.4297,-11.9882 6.7578,-16.3203 4.332,-4.3281 10.1914,-6.7578 16.3203,-6.7578 z m 0,-7.0625 c -8,0 -15.6602,3.1797 -21.3086,8.832 -5.6602,5.6485 -8.8281,13.3086 -8.8281,21.3086 V 693.564 c 0,7.9922 3.1679,15.6602 8.8281,21.3086 5.6484,5.6524 13.3086,8.8282 21.3086,8.8282 h 165.83203 c 16.6407,0 30.1289,-13.4922 30.1289,-30.1368 V 535.8101 c 0,-16.6484 -13.4882,-30.1406 -30.1289,-30.1406 z m 0,0"
     id="path7" />
  <path
     fill-rule="nonzero"
     fill="#000000"
     fill-opacity="1"
     d="m 1255.3366,512.732 h 165.8321 c 12.75,0 23.0781,10.3281 23.0781,23.0781 V 693.564 c 0,12.7461 -10.3281,23.0782 -23.0781,23.0782 h -165.8321 c -6.121,0 -11.9882,-2.4336 -16.3203,-6.7578 -4.3281,-4.3282 -6.7578,-10.1993 -6.7578,-16.3204 V 535.8101 c 0,-6.1211 2.4297,-11.9882 6.7578,-16.3203 4.3321,-4.3281 10.1993,-6.7578 16.3203,-6.7578 z m 0,-7.0625 c -7.9882,0 -15.6601,3.1797 -21.3085,8.832 -5.6524,5.6485 -8.8321,13.3086 -8.8321,21.3086 V 693.564 c 0,7.9922 3.1797,15.6602 8.8321,21.3086 5.6484,5.6524 13.3203,8.8282 21.3085,8.8282 h 165.8321 c 16.6484,0 30.1367,-13.4922 30.1367,-30.1368 V 535.8101 c 0,-16.6484 -13.4883,-30.1406 -30.1289,-30.1406 z m 0,0"
     id="path8" />
  <path
     fill-rule="nonzero"
     fill="#000000"
     fill-opacity="1"
     d="m 1767.407,512.732 h 165.8398 c 12.7383,0 23.0703,10.3281 23.0703,23.0781 V 693.564 c 0,12.7461 -10.332,23.0782 -23.0703,23.0782 H 1767.407 c -6.1211,0 -11.9883,-2.4336 -16.3204,-6.7578 -4.3203,-4.3282 -6.75,-10.1993 -6.75,-16.3204 V 535.8101 c 0,-6.1211 2.4297,-11.9882 6.75,-16.3203 4.3321,-4.3281 10.1993,-6.7578 16.3204,-6.7578 z m 0,-7.0625 c -7.9883,0 -15.6602,3.1797 -21.3086,8.832 -5.6524,5.6485 -8.8321,13.3086 -8.8321,21.3086 V 693.564 c 0,7.9922 3.1797,15.6602 8.8321,21.3086 5.6484,5.6524 13.3203,8.8282 21.3086,8.8282 h 165.8398 c 16.6406,0 30.1289,-13.4922 30.1289,-30.1368 V 535.8101 c 0,-16.6484 -13.4883,-30.1406 -30.1289,-30.1406 z m 0,0"
     id="path9" />
  <path
     fill-rule="nonzero"
     fill="#000000"
     fill-opacity="1"
     d="m 2023.446,512.732 h 165.8321 c 12.7382,0 23.0781,10.3281 23.0781,23.0781 V 693.564 c 0,12.7461 -10.3399,23.0782 -23.0781,23.0782 H 2023.446 c -6.1289,0 -11.9883,-2.4336 -16.3203,-6.7578 -4.3281,-4.3282 -6.7578,-10.1993 -6.7578,-16.3204 V 535.8101 c 0,-6.1211 2.4297,-11.9882 6.7578,-16.3203 4.332,-4.3281 10.1914,-6.7578 16.3203,-6.7578 z m 0,-7.0625 c -8,0 -15.6601,3.1797 -21.3086,8.832 -5.6601,5.6485 -8.832,13.3086 -8.832,21.3086 V 693.564 c 0,7.9922 3.1719,15.6602 8.832,21.3086 5.6485,5.6524 13.3086,8.8282 21.3086,8.8282 h 165.8321 c 16.6406,0 30.1289,-13.4922 30.1289,-30.1368 V 535.8101 c 0,-16.6484 -13.4805,-30.1406 -30.1289,-30.1406 z m 0,0"
     id="path10" />
  <path
     fill-rule="nonzero"
     fill="#000000"
     fill-opacity="1"
     d="m 2279.4773,512.732 h 165.8398 c 12.7383,0 23.0703,10.3281 23.0703,23.0781 V 693.564 c 0,12.7461 -10.332,23.0782 -23.0703,23.0782 h -165.8398 c -6.1211,0 -11.9922,-2.4336 -16.3203,-6.7578 -4.3204,-4.3282 -6.75,-10.1993 -6.75,-16.3204 V 535.8101 c 0,-6.1211 2.4296,-11.9882 6.75,-16.3203 4.3281,-4.3281 10.1992,-6.7578 16.3203,-6.7578 z m 0,-7.0625 c -7.9922,0 -15.6602,3.1797 -21.3086,8.832 -5.6524,5.6485 -8.8203,13.3086 -8.8203,21.3086 V 693.564 c 0,7.9922 3.1679,15.6602 8.8203,21.3086 5.6484,5.6524 13.3164,8.8282 21.3086,8.8282 h 165.8398 c 16.6406,0 30.1289,-13.4922 30.1289,-30.1368 V 535.8101 c 0,-16.6484 -13.4883,-30.1406 -30.1289,-30.1406 z m 0,0"
     id="path11" />
  <path
     fill-rule="nonzero"
     fill="#000000"
     fill-opacity="1"
     d="m 2535.5163,512.732 h 165.8321 c 12.7382,0 23.0781,10.3281 23.0781,23.0781 V 693.564 c 0,12.7461 -10.3399,23.0782 -23.0781,23.0782 h -165.8321 c -6.1211,0 -11.9882,-2.4336 -16.3203,-6.7578 -4.3281,-4.3282 -6.7578,-10.1993 -6.7578,-16.3204 V 535.8101 c 0,-6.1211 2.4297,-11.9882 6.7578,-16.3203 4.3321,-4.3281 10.1992,-6.7578 16.3203,-6.7578 z m 0,-7.0625 c -8,0 -15.6601,3.1797 -21.3086,8.832 -5.6523,5.6485 -8.832,13.3086 -8.832,21.3086 V 693.564 c 0,7.9922 3.1797,15.6602 8.832,21.3086 5.6485,5.6524 13.3086,8.8282 21.3086,8.8282 h 165.8321 c 16.6367,0 30.1289,-13.4922 30.1289,-30.1368 V 535.8101 c 0,-16.6484 -13.4805,-30.1406 -30.1289,-30.1406 z m 0,0"
     id="path12" />
  <path
     fill-rule="nonzero"
     fill="#000000"
     fill-opacity="1"
     d="m 2791.5476,512.732 h 165.8398 c 12.7383,0 23.0703,10.3281 23.0703,23.0781 V 693.564 c 0,12.7461 -10.332,23.0782 -23.0703,23.0782 h -165.8398 c -6.1211,0 -11.9922,-2.4336 -16.3203,-6.7578 -4.3203,-4.3282 -6.75,-10.1993 -6.75,-16.3204 V 535.8101 c 0,-6.1211 2.4297,-11.9882 6.75,-16.3203 4.3281,-4.3281 10.1992,-6.7578 16.3203,-6.7578 z m 0,-7.0625 c -7.9922,0 -15.6602,3.1797 -21.3125,8.832 -5.6485,5.6485 -8.8164,13.3086 -8.8164,21.3086 V 693.564 c 0,7.9922 3.1679,15.6602 8.8164,21.3086 5.6523,5.6524 13.3203,8.8282 21.3125,8.8282 h 165.8398 c 16.6407,0 30.1289,-13.4922 30.1289,-30.1368 V 535.8101 c 0,-16.6484 -13.4882,-30.1406 -30.1289,-30.1406 z m 0,0"
     id="path13" />
  <path
     fill-rule="nonzero"
     fill="#000000"
     fill-opacity="1"
     d="m 3047.5866,512.732 h 165.8321 c 12.75,0 23.0781,10.3281 23.0781,23.0781 V 693.564 c 0,12.7461 -10.3281,23.0782 -23.0781,23.0782 h -165.8321 c -6.121,0 -11.9882,-2.4336 -16.3203,-6.7578 -4.3281,-4.3282 -6.7578,-10.1993 -6.7578,-16.3204 V 535.8101 c 0,-6.1211 2.4297,-11.9882 6.7578,-16.3203 4.3321,-4.3281 10.1993,-6.7578 16.3203,-6.7578 z m 0,-7.0625 c -8,0 -15.6601,3.1797 -21.3085,8.832 -5.6524,5.6485 -8.8321,13.3086 -8.8321,21.3086 V 693.564 c 0,7.9922 3.1797,15.6602 8.8321,21.3086 5.6484,5.6524 13.3085,8.8282 21.3085,8.8282 h 165.8321 c 16.6484,0 30.1367,-13.4922 30.1367,-30.1368 V 535.8101 c 0,-16.6484 -13.4883,-30.1406 -30.1367,-30.1406 z m 0,0"
     id="path14" />
  <path
     fill-rule="nonzero"
     fill="#000000"
     fill-opacity="1"
     d="m 3303.6257,512.732 h 165.832 c 12.7383,0 23.0704,10.3281 23.0704,23.0781 V 693.564 c 0,12.7461 -10.3321,23.0782 -23.0704,23.0782 h -165.832 c -6.1289,0 -12,-2.4336 -16.3203,-6.7578 -4.3281,-4.3282 -6.7578,-10.1993 -6.7578,-16.3204 V 535.8101 c 0,-6.1211 2.4297,-11.9882 6.7578,-16.3203 4.3203,-4.3281 10.1914,-6.7578 16.3203,-6.7578 z m 0,-7.0625 c -8,0 -15.6601,3.1797 -21.3086,8.832 h -0.012 c -5.6484,5.6485 -8.8203,13.3086 -8.8203,21.3086 V 693.564 c 0,7.9922 3.1719,15.6602 8.8203,21.3086 h 0.012 c 5.6485,5.6524 13.3086,8.8282 21.3086,8.8282 h 165.832 c 16.6407,0 30.1289,-13.4922 30.1289,-30.1368 V 535.8101 c 0,-16.6484 -13.4882,-30.1406 -30.1289,-30.1406 z m 0,0"
     id="path15" />
  <path
     fill-rule="nonzero"
     fill="#000000"
     fill-opacity="1"
     d="m 1183.1687,1269.8336 h 1190.5586 c 12.7383,0 23.0781,10.332 23.0781,23.0781 v 157.7539 c 0,12.7461 -10.3398,23.0781 -23.0781,23.0781 H 1183.1687 c -6.1211,0 -11.9922,-2.4297 -16.3203,-6.7578 -4.3321,-4.3281 -6.7618,-10.1992 -6.7618,-16.3164 v -157.7578 c 0,-6.1211 2.4297,-11.9922 6.7618,-16.3203 4.3281,-4.3242 10.1992,-6.7578 16.3203,-6.7578 z m 0,-7.0586 c -7.9922,0 -15.6602,3.1758 -21.3125,8.8281 -5.6485,5.6484 -8.8203,13.3164 -8.8203,21.3086 v 157.7578 c 0,7.9922 3.1718,15.6563 8.8203,21.3086 5.6523,5.6484 13.3203,8.8242 21.3125,8.8242 h 1190.5586 c 16.6406,0 30.1289,-13.4922 30.1289,-30.1367 v -157.7539 c 0,-16.6445 -13.4883,-30.1367 -30.1289,-30.1367 z m 0,0"
     id="path17"
     style="stroke:none;stroke-opacity:1" />
  <path
     fill-rule="nonzero"
     fill="#000000"
     fill-opacity="1"
     d="m 860.73896,1269.8336 h 232.83594 c 12.7422,0 23.0703,10.332 23.0703,23.0781 v 157.7539 c 0,12.7461 -10.3281,23.0781 -23.0703,23.0781 H 860.73896 c -6.1211,0 -11.98828,-2.4297 -16.31641,-6.7578 -4.32812,-4.3281 -6.76172,-10.1992 -6.76172,-16.3164 v -157.7578 c 0,-6.1211 2.4336,-11.9922 6.76172,-16.3164 4.32813,-4.3281 10.19531,-6.7617 16.31641,-6.7617 z m 0,-7.0586 c -7.99219,0 -15.65625,3.1758 -21.3086,8.8281 -5.65234,5.6484 -8.82812,13.3164 -8.82812,21.3086 v 157.7578 c 0,7.9922 3.17578,15.6563 8.82812,21.3086 5.65235,5.6484 13.31641,8.8242 21.3086,8.8242 h 232.83594 c 16.6407,0 30.1328,-13.4922 30.1328,-30.1367 v -157.7539 c 0,-16.6445 -13.4921,-30.1367 -30.1328,-30.1367 z m 0,0"
     id="path18" />
  <path
     fill-rule="nonzero"
     fill="#000000"
     fill-opacity="1"
     d="m 2463.3171,1269.8336 h 232.8399 c 12.7382,0 23.0703,10.3281 23.0703,23.0742 v 157.7539 c 0,12.7461 -10.3321,23.0781 -23.0703,23.0781 h -232.8399 c -6.1211,0 -11.9922,-2.4297 -16.3203,-6.7578 -4.3203,-4.3281 -6.75,-10.1992 -6.75,-16.3164 v -157.7578 c 0,-6.1211 2.4297,-11.9922 6.75,-16.3164 4.3281,-4.3281 10.1992,-6.7617 16.3203,-6.7617 z m 0,-7.0586 c -7.9922,0 -15.6601,3.1758 -21.3086,8.8281 -5.6523,5.6484 -8.832,13.3164 -8.832,21.3086 v 157.7578 c 0,7.9922 3.1797,15.6563 8.832,21.3086 5.6485,5.6484 13.3164,8.8242 21.3086,8.8242 h 232.8399 c 16.6406,0 30.1289,-13.4922 30.1289,-30.1367 v -157.7539 c 0,-16.6445 -13.4883,-30.1367 -30.1289,-30.1367 z m 0,0"
     id="path19" />
  <path
     fill-rule="nonzero"
     fill="#000000"
     fill-opacity="1"
     d="m 94.46161,1269.8336 h 165.83203 c 12.7461,0 23.07813,10.332 23.07813,23.0781 v 157.7539 c 0,12.7461 -10.33203,23.0781 -23.07813,23.0781 H 94.46161 c -6.12109,0 -11.99218,-2.4297 -16.3164,-6.7578 -4.32813,-4.3281 -6.76172,-10.1992 -6.76172,-16.3203 v -157.7539 c 0,-6.1211 2.43359,-11.9922 6.76172,-16.3203 4.32422,-4.3281 10.19531,-6.7578 16.3164,-6.7578 z m 0,-7.0586 c -7.99218,0 -15.66015,3.1758 -21.30859,8.8242 -5.65234,5.6523 -8.82813,13.3164 -8.82813,21.3125 v 157.7539 c 0,7.9961 3.17579,15.6602 8.82813,21.3125 5.64844,5.6484 13.31641,8.8242 21.30859,8.8242 h 165.83203 c 16.64454,0 30.13672,-13.4922 30.13672,-30.1367 v -157.7539 c 0,-16.6445 -13.49218,-30.1367 -30.13281,-30.1367 z m 0,0"
     id="path22" />
  <path
     fill-rule="nonzero"
     fill="#000000"
     fill-opacity="1"
     d="m 349.88739,1269.8336 h 165.83204 c 12.74609,0 23.07812,10.332 23.07812,23.0781 v 157.7539 c 0,12.7461 -10.33203,23.0781 -23.07812,23.0781 H 349.88739 c -6.12109,0 -11.99218,-2.4297 -16.3164,-6.7578 -4.32813,-4.3281 -6.76172,-10.1992 -6.76172,-16.3203 v -157.7539 c 0,-6.1211 2.43359,-11.9922 6.76172,-16.3203 4.32422,-4.3281 10.19531,-6.7578 16.3164,-6.7578 z m 0,-7.0586 c -7.99218,0 -15.65625,3.1758 -21.30859,8.8242 -5.65234,5.6523 -8.82812,13.3164 -8.82812,21.3125 v 157.7539 c 0,7.9961 3.17578,15.6602 8.82812,21.3125 5.65234,5.6484 13.31641,8.8242 21.30859,8.8242 h 165.83204 c 16.64453,0 30.13671,-13.4922 30.13671,-30.1367 v -157.7539 c 0,-16.6445 -13.49218,-30.1367 -30.13281,-30.1367 z m 0,0"
     id="path23" />
  <path
     fill-rule="nonzero"
     fill="#000000"
     fill-opacity="1"
     d="m 605.31318,1269.8336 h 165.83203 c 12.74609,0 23.07812,10.332 23.07812,23.0781 v 157.7539 c 0,12.7461 -10.33203,23.0781 -23.07812,23.0781 H 605.31318 c -6.1211,0 -11.98829,-2.4297 -16.31641,-6.7578 -4.32813,-4.3281 -6.76172,-10.1992 -6.76172,-16.3203 v -157.7539 c 0,-6.1211 2.43359,-11.9922 6.76172,-16.3203 4.32812,-4.3281 10.19531,-6.7578 16.31641,-6.7578 z m 0,-7.0586 c -7.99219,0 -15.65625,3.1758 -21.3086,8.8242 -5.65234,5.6523 -8.82812,13.3164 -8.82812,21.3125 v 157.7539 c 0,7.9961 3.17578,15.6602 8.82812,21.3125 5.65235,5.6484 13.31641,8.8242 21.3086,8.8242 h 165.83203 c 16.64453,0 30.13672,-13.4922 30.13672,-30.1367 v -157.7539 c 0,-16.6445 -13.49219,-30.1367 -30.13282,-30.1367 z m 0,0"
     id="path24" />
  <path
     fill-rule="nonzero"
     fill="#000000"
     fill-opacity="1"
     d="m 2785.7468,1269.8336 h 165.8281 c 12.75,0 23.0821,10.332 23.0821,23.0781 v 157.7539 c 0,12.7461 -10.3321,23.0781 -23.0821,23.0781 h -165.8281 c -6.1211,0 -11.9883,-2.4297 -16.3203,-6.7578 -4.3203,-4.3281 -6.7578,-10.1992 -6.7578,-16.3203 v -157.7539 c 0,-6.1211 2.4375,-11.9922 6.7578,-16.3203 4.332,-4.3281 10.1992,-6.7578 16.3203,-6.7578 z m 0,-7.0586 c -7.9883,0 -15.6602,3.1758 -21.3086,8.8242 -5.6523,5.6523 -8.832,13.3164 -8.832,21.3125 v 157.7539 c 0,7.9961 3.1797,15.6602 8.832,21.3125 5.6484,5.6484 13.3203,8.8242 21.3086,8.8242 h 165.8281 c 16.6524,0 30.1407,-13.4922 30.1407,-30.1367 v -157.7539 c 0,-16.6445 -13.4883,-30.1367 -30.129,-30.1367 z m 0,0"
     id="path25" />
  <path
     fill-rule="nonzero"
     fill="#000000"
     fill-opacity="1"
     d="m 3296.4382,1265.2359 h 173.4688 c 12.75,0 23.0781,10.3321 23.0781,23.0742 v 50.1446 c 0,12.7461 -10.3281,23.0781 -23.0781,23.0781 h -173.4688 c -6.1211,0 -11.9922,-2.4297 -16.3125,-6.7578 -4.3281,-4.3281 -6.7578,-10.1992 -6.7578,-16.3164 v -50.1485 c 0,-6.1211 2.4297,-11.9882 6.7578,-16.3164 4.3203,-4.3281 10.1914,-6.7617 16.3125,-6.7617 z m 0,-7.0586 c -7.9922,0 -15.6601,3.1758 -21.3008,8.8281 -5.6601,5.6524 -8.832,13.3165 -8.832,21.3086 v 50.1485 c 0,7.9922 3.1719,15.6562 8.832,21.3086 5.6407,5.6484 13.3086,8.8242 21.3008,8.8242 h 173.4688 c 16.6484,0 30.1406,-13.4922 30.1406,-30.1367 v -50.1446 c 0,-16.6445 -13.4922,-30.1367 -30.1406,-30.1367 z m 0,0"
     id="path26" />
  <path
     fill-rule="nonzero"
     fill="#000000"
     fill-opacity="1"
     d="m 3296.4382,1377.4469 h 173.4688 c 12.75,0 23.0781,10.332 23.0781,23.0742 v 50.1445 c 0,12.7461 -10.3281,23.0781 -23.0781,23.0781 h -173.4688 c -6.1211,0 -11.9922,-2.4297 -16.3125,-6.7578 -4.3281,-4.3281 -6.7578,-10.1992 -6.7578,-16.3164 v -50.1484 c 0,-6.1211 2.4297,-11.9883 6.7578,-16.3164 4.3203,-4.3282 10.1914,-6.7578 16.3125,-6.7578 z m 0,-7.0625 c -7.9922,0 -15.6601,3.1757 -21.3008,8.8281 -5.6601,5.6523 -8.832,13.3164 -8.832,21.3086 v 50.1484 c 0,7.9922 3.1719,15.6563 8.832,21.3086 5.6407,5.6484 13.3086,8.8242 21.3008,8.8242 h 173.4688 c 16.6484,0 30.1406,-13.4922 30.1406,-30.1367 v -50.1445 c 0,-16.6407 -13.4922,-30.1328 -30.1406,-30.1328 z m 0,0"
     id="path27" />
  <path
     fill-rule="nonzero"
     fill="#000000"
     fill-opacity="1"
     d="m 3041.5869,1377.0159 h 173.4688 c 12.75,0 23.0781,10.332 23.0781,23.0742 v 50.1445 c 0,12.7461 -10.3281,23.0781 -23.0781,23.0781 h -173.4688 c -6.1211,0 -11.9922,-2.4297 -16.3125,-6.7578 -4.3281,-4.3281 -6.7578,-10.1992 -6.7578,-16.3164 v -50.1484 c 0,-6.1211 2.4297,-11.9883 6.7578,-16.3164 4.3203,-4.3282 10.1914,-6.7578 16.3125,-6.7578 z m 0,-7.0625 c -7.9922,0 -15.6601,3.1757 -21.3008,8.8281 -5.6601,5.6523 -8.832,13.3164 -8.832,21.3086 v 50.1484 c 0,7.9922 3.1719,15.6563 8.832,21.3086 5.6407,5.6484 13.3086,8.8242 21.3008,8.8242 h 173.4688 c 16.6484,0 30.1406,-13.4922 30.1406,-30.1367 v -50.1445 c 0,-16.6407 -13.4922,-30.1328 -30.1406,-30.1328 z m 0,0"
     id="path27-7" />
  <path
     fill-rule="nonzero"
     fill="#000000"
     fill-opacity="1"
     d="m 3552.6271,1377.7373 h 173.4688 c 12.75,0 23.0781,10.332 23.0781,23.0742 v 50.1445 c 0,12.7461 -10.3281,23.0781 -23.0781,23.0781 h -173.4688 c -6.1211,0 -11.9922,-2.4297 -16.3125,-6.7578 -4.3281,-4.3281 -6.7578,-10.1992 -6.7578,-16.3164 v -50.1484 c 0,-6.1211 2.4297,-11.9883 6.7578,-16.3164 4.3203,-4.3282 10.1914,-6.7578 16.3125,-6.7578 z m 0,-7.0625 c -7.9922,0 -15.6601,3.1757 -21.3008,8.8281 -5.6601,5.6523 -8.832,13.3164 -8.832,21.3086 v 50.1484 c 0,7.9922 3.1719,15.6563 8.832,21.3086 5.6407,5.6484 13.3086,8.8242 21.3008,8.8242 h 173.4688 c 16.6484,0 30.1406,-13.4922 30.1406,-30.1367 v -50.1445 c 0,-16.6407 -13.4922,-30.1328 -30.1406,-30.1328 z m 0,0"
     id="path27-5" />
  <path
     fill-rule="nonzero"
     fill="#000000"
     fill-opacity="1"
     d="m 94.27802,1016.7867 c -0.0273,0 -0.0508,0 -0.0781,0 h 0.0898 z m -16.90234,0 h 497.95703 c 12.74609,0 23.07422,10.332 23.07422,23.0742 v 157.7578 c 0,12.7461 -10.33204,23.0742 -23.07422,23.0742 h -480.90235 0.0273 c -6.1211,0 -11.98828,-2.4336 -16.31641,-6.7618 -4.32422,-4.3242 -6.75781,-10.1953 -6.75781,-16.3164 v -157.7578 c 0,-6.1172 2.43359,-11.9883 6.75781,-16.3164 4.25391,-4.2539 9.99609,-6.6719 16,-6.7578 h 0.0156 0.043 -0.0117 c -0.0156,0 -0.0312,0 -0.0469,0 v 0 z m 17.00781,203.9102 h 0.0273 z m 0.0391,-210.9688 c -7.17187,0.01 -14.07812,2.5742 -19.49609,7.1875 h 0.004 -0.004 0.008 -0.0117 c -0.60937,0.5156 -1.19922,1.0625 -1.76953,1.6328 -5.65234,5.6524 -8.82813,13.3164 -8.82813,21.3086 v 157.7578 c 0,7.9922 3.17579,15.6563 8.82813,21.3086 0.57031,0.5742 1.16406,1.1211 1.77344,1.6406 h 0.0156 -0.0156 c 5.41797,4.6133 12.32031,7.1758 19.48828,7.1875 h -0.0156 c 0.008,0 0.0156,0 0.0234,0 h -0.0469 480.95703 c 7.44922,0 14.26953,-2.707 19.53125,-7.1875 h -0.0156 c 0.004,0 0.004,0 0.008,0 h 0.008 c 6.48828,-5.5273 10.60156,-13.7578 10.60156,-22.9492 V 1039.857 c 0,-9.1875 -4.10938,-17.414 -10.59766,-22.9414 h 0.008 c -0.004,0 -0.008,0 -0.0117,0 h 0.004 c -5.26172,-4.4844 -12.08203,-7.1875 -19.53515,-7.1875 z m 0,0"
     id="path28" />
  <path
     fill-rule="nonzero"
     fill="#000000"
     fill-opacity="1"
     d="m 1689.9187,1012.0875 h 165.8398 c 12.7383,0 23.0664,10.332 23.0664,23.0781 v 157.7539 c 0,12.7461 -10.3281,23.0781 -23.0664,23.0781 h -165.8398 c -6.1211,0 -11.9922,-2.4297 -16.3125,-6.7578 -4.3281,-4.3281 -6.7578,-10.1992 -6.7578,-16.3203 v -157.7539 c 0,-6.1211 2.4297,-11.9922 6.7578,-16.3203 4.3203,-4.3281 10.1914,-6.7578 16.3125,-6.7578 z m 0,-7.0586 c -7.9922,0 -15.6524,3.1758 -21.3125,8.8242 -5.6485,5.6523 -8.8203,13.3164 -8.8203,21.3125 v 157.7539 c 0,7.9961 3.1718,15.6602 8.8203,21.3125 5.6601,5.6484 13.3203,8.8242 21.3125,8.8242 h 165.8398 c 16.6367,0 30.1289,-13.4922 30.1289,-30.1367 v -157.7539 c 0,-16.6445 -13.4922,-30.1367 -30.1289,-30.1367 z m 0,0"
     id="path29" />
  <path
     fill-rule="nonzero"
     fill="#000000"
     fill-opacity="1"
     d="m 665.77802,1012.0875 h 165.83203 c 12.74609,0 23.07813,10.332 23.07813,23.0781 v 157.7539 c 0,12.7461 -10.33204,23.0781 -23.07813,23.0781 H 665.77802 c -6.12109,0 -11.98828,-2.4297 -16.31641,-6.7578 -4.32812,-4.3281 -6.76172,-10.1992 -6.76172,-16.3203 v -157.7539 c 0,-6.1211 2.4336,-11.9922 6.76172,-16.3203 4.32813,-4.3281 10.19532,-6.7578 16.31641,-6.7578 z m 0,-7.0586 c -7.99219,0 -15.65625,3.1758 -21.30859,8.8242 -5.65235,5.6523 -8.82813,13.3164 -8.82813,21.3125 v 157.7539 c 0,7.9961 3.17578,15.6602 8.82813,21.3125 5.65234,5.6484 13.3164,8.8242 21.30859,8.8242 h 165.83203 c 16.64453,0 30.13672,-13.4922 30.13672,-30.1367 v -157.7539 c 0,-16.6445 -13.49219,-30.1367 -30.13281,-30.1367 z m 0,0"
     id="path30" />
  <path
     fill-rule="nonzero"
     fill="#000000"
     fill-opacity="1"
     d="m 921.81318,1012.0875 h 165.83202 c 12.7422,0 23.0821,10.332 23.0821,23.0781 v 157.7539 c 0,12.7461 -10.3399,23.0781 -23.0821,23.0781 H 921.81318 c -6.1211,0 -11.98829,-2.4297 -16.31641,-6.7578 -4.32813,-4.3281 -6.76172,-10.1992 -6.76172,-16.3203 v -157.7539 c 0,-6.1211 2.43359,-11.9922 6.76172,-16.3203 4.32812,-4.3281 10.19531,-6.7578 16.31641,-6.7578 z m 0,-7.0586 c -7.99219,0 -15.65625,3.1758 -21.3086,8.8242 -5.65234,5.6523 -8.82812,13.3164 -8.82812,21.3125 v 157.7539 c 0,7.9961 3.17578,15.6602 8.82812,21.3125 5.65235,5.6484 13.31641,8.8242 21.3086,8.8242 h 165.83202 c 16.6407,0 30.1407,-13.4922 30.1407,-30.1367 v -157.7539 c 0,-16.6445 -13.5,-30.1367 -30.1407,-30.1367 z m 0,0"
     id="path31" />
  <path
     fill-rule="nonzero"
     fill="#000000"
     fill-opacity="1"
     d="m 1177.8484,1012.0875 h 165.8281 c 12.75,0 23.082,10.332 23.082,23.0781 v 157.7539 c 0,12.7461 -10.332,23.0781 -23.082,23.0781 h -165.8281 c -6.1211,0 -11.9922,-2.4297 -16.3125,-6.7578 -4.3282,-4.3281 -6.7696,-10.1992 -6.7696,-16.3203 v -157.7539 c 0,-6.1211 2.4414,-11.9922 6.7696,-16.3203 4.3203,-4.3281 10.1914,-6.7578 16.3125,-6.7578 z m 0,-7.0586 c -7.9922,0 -15.6602,3.1758 -21.3125,8.8242 -5.6485,5.6523 -8.8282,13.3164 -8.8282,21.3125 v 157.7539 c 0,7.9961 3.1797,15.6602 8.8282,21.3125 5.6523,5.6484 13.3203,8.8242 21.3125,8.8242 h 165.8281 c 16.6484,0 30.1406,-13.4922 30.1406,-30.1367 v -157.7539 c 0,-16.6445 -13.4922,-30.1367 -30.1289,-30.1367 z m 0,0"
     id="path32" />
  <path
     fill-rule="nonzero"
     fill="#000000"
     fill-opacity="1"
     d="m 1433.8874,1012.0875 h 165.8282 c 12.75,0 23.082,10.332 23.082,23.0781 v 157.7539 c 0,12.7461 -10.332,23.0781 -23.082,23.0781 h -165.8282 c -6.1211,0 -11.9922,-2.4297 -16.3203,-6.7578 -4.332,-4.3281 -6.7617,-10.1992 -6.7617,-16.3203 v -157.7539 c 0,-6.1211 2.4297,-11.9922 6.7617,-16.3203 4.3281,-4.3281 10.1992,-6.7578 16.3203,-6.7578 z m 0,-7.0586 c -8,0 -15.6601,3.1758 -21.3125,8.8242 -5.6484,5.6523 -8.8281,13.3164 -8.8281,21.3125 v 157.7539 c 0,7.9961 3.1797,15.6602 8.8281,21.3125 5.6524,5.6484 13.3125,8.8242 21.3125,8.8242 h 165.8282 c 16.6406,0 30.1406,-13.4922 30.1406,-30.1367 v -157.7539 c 0,-16.6445 -13.5,-30.1367 -30.1406,-30.1367 z m 0,0"
     id="path33" />
  <path
     fill-rule="nonzero"
     fill="#000000"
     fill-opacity="1"
     d="m 1945.9577,1012.0875 h 165.8282 c 12.75,0 23.082,10.332 23.082,23.0781 v 157.7539 c 0,12.7461 -10.332,23.0781 -23.082,23.0781 h -165.8282 c -6.1211,0 -11.9921,-2.4297 -16.3203,-6.7578 -4.332,-4.3281 -6.7617,-10.1992 -6.7617,-16.3203 v -157.7539 c 0,-6.1211 2.4297,-11.9922 6.7617,-16.3203 4.3282,-4.3281 10.1992,-6.7578 16.3203,-6.7578 z m 0,-7.0586 c -7.9921,0 -15.6601,3.1758 -21.3125,8.8242 -5.6484,5.6523 -8.8281,13.3164 -8.8281,21.3125 v 157.7539 c 0,7.9961 3.1797,15.6602 8.8281,21.3125 5.6524,5.6484 13.3204,8.8242 21.3125,8.8242 h 165.8282 c 16.6406,0 30.1406,-13.4922 30.1406,-30.1367 v -157.7539 c 0,-16.6445 -13.4883,-30.1367 -30.1406,-30.1367 z m 0,0"
     id="path34" />
  <path
     fill-rule="nonzero"
     fill="#000000"
     fill-opacity="1"
     d="m 2201.9851,1012.0875 h 165.8398 c 12.7422,0 23.0703,10.332 23.0703,23.0781 v 157.7539 c 0,12.7461 -10.3281,23.0781 -23.0703,23.0781 h -165.8398 c -6.1172,0 -11.9883,-2.4297 -16.3086,-6.7578 -4.3281,-4.3281 -6.7578,-10.1992 -6.7578,-16.3203 v -157.7539 c 0,-6.1211 2.4297,-11.9922 6.7578,-16.3203 4.3203,-4.3281 10.1914,-6.7578 16.3086,-6.7578 z m 0,-7.0586 c -7.9883,0 -15.6485,3.1758 -21.3086,8.8242 -5.6484,5.6523 -8.8203,13.3164 -8.8203,21.3125 v 157.7539 c 0,7.9961 3.1719,15.6602 8.8203,21.3125 5.6601,5.6484 13.3203,8.8242 21.3086,8.8242 h 165.8398 c 16.6407,0 30.1328,-13.4922 30.1328,-30.1367 v -157.7539 c 0,-16.6445 -13.4921,-30.1367 -30.1328,-30.1367 z m 0,0"
     id="path35" />
  <path
     fill-rule="nonzero"
     fill="#000000"
     fill-opacity="1"
     d="m 2458.0281,1012.0875 h 165.8281 c 12.75,0 23.082,10.332 23.082,23.0781 v 157.7539 c 0,12.7461 -10.332,23.0781 -23.082,23.0781 h -165.8281 c -6.1211,0 -11.9922,-2.4297 -16.3204,-6.7578 -4.332,-4.3281 -6.7617,-10.1992 -6.7617,-16.3203 v -157.7539 c 0,-6.1211 2.4297,-11.9922 6.7617,-16.3203 4.3282,-4.3281 10.1993,-6.7578 16.3204,-6.7578 z m 0,-7.0586 c -7.9922,0 -15.6602,3.1758 -21.3125,8.8242 -5.6485,5.6523 -8.8282,13.3164 -8.8282,21.3125 v 157.7539 c 0,7.9961 3.1797,15.6602 8.8282,21.3125 5.6523,5.6484 13.3203,8.8242 21.3125,8.8242 h 165.8281 c 16.6406,0 30.1406,-13.4922 30.1406,-30.1367 v -157.7539 c 0,-16.6445 -13.4883,-30.1367 -30.1406,-30.1367 z m 0,0"
     id="path36" />
  <path
     fill-rule="nonzero"
     fill="#000000"
     fill-opacity="1"
     d="m 2714.0554,1012.0875 h 165.8398 c 12.7422,0 23.0704,10.332 23.0704,23.0781 v 157.7539 c 0,12.7461 -10.3282,23.0781 -23.0704,23.0781 h -165.8398 c -6.1094,0 -11.9883,-2.4297 -16.3086,-6.7578 -4.3281,-4.3281 -6.7617,-10.1992 -6.7617,-16.3203 v -157.7539 c 0,-6.1211 2.4336,-11.9922 6.7617,-16.3203 4.3203,-4.3281 10.1992,-6.7578 16.3086,-6.7578 z m 0,-7.0586 c -7.9883,0 -15.6484,3.1758 -21.3086,8.8242 -5.6406,5.6523 -8.8203,13.3164 -8.8203,21.3125 v 157.7539 c 0,7.9961 3.1797,15.6602 8.8203,21.3125 5.6602,5.6484 13.3203,8.8242 21.3086,8.8242 h 165.8398 c 16.6407,0 30.1329,-13.4922 30.1329,-30.1367 v -157.7539 c 0,-16.6445 -13.4922,-30.1367 -30.1329,-30.1367 z m 0,0"
     id="path37" />
  <path
     fill-rule="nonzero"
     fill="#000000"
     fill-opacity="1"
     d="m 2970.0984,1012.0875 h 165.8281 c 12.75,0 23.082,10.332 23.082,23.0781 v 157.7539 c 0,12.7461 -10.332,23.0781 -23.082,23.0781 h -165.8281 c -6.1211,0 -11.9922,-2.4297 -16.3203,-6.7578 -4.3321,-4.3281 -6.7618,-10.1992 -6.7618,-16.3203 v -157.7539 c 0,-6.1211 2.4297,-11.9922 6.7618,-16.3203 4.3281,-4.3281 10.1992,-6.7578 16.3203,-6.7578 z m 0,-7.0586 c -7.9922,0 -15.6602,3.1758 -21.3125,8.8242 -5.6485,5.6523 -8.8203,13.3164 -8.8203,21.3125 v 157.7539 c 0,7.9961 3.1718,15.6602 8.8203,21.3125 5.6523,5.6484 13.3203,8.8242 21.3125,8.8242 h 165.8281 c 16.6484,0 30.1406,-13.4922 30.1406,-30.1367 v -157.7539 c 0,-16.6445 -13.4922,-30.1367 -30.1406,-30.1367 z m 0,0"
     id="path38" />
  <path
     fill-rule="nonzero"
     fill="#000000"
     fill-opacity="1"
     d="m 3227.5281,1012.0875 h 497.957 c 12.75,0 23.082,10.332 23.082,23.0781 v 157.7539 c 0,12.7461 -10.332,23.0781 -23.082,23.0781 h -497.957 c -6.1211,0 -11.9805,-2.4297 -16.3125,-6.7578 -4.3282,-4.3281 -6.7579,-10.1992 -6.7579,-16.3164 v -157.7578 c 0,-6.1211 2.4297,-11.9922 6.7579,-16.3164 4.332,-4.3281 10.1914,-6.7617 16.3125,-6.7617 z m 0,-7.0586 c -7.9922,0 -15.6524,3.1758 -21.3008,8.8281 -5.6602,5.6484 -8.8321,13.3164 -8.8321,21.3086 v 157.7578 c 0,7.9922 3.1719,15.6563 8.8321,21.3086 5.6484,5.6484 13.3086,8.8242 21.3008,8.8242 h 497.957 c 16.6523,0 30.1406,-13.4922 30.1406,-30.1367 v -157.7539 c 0,-16.6445 -13.4883,-30.1367 -30.1406,-30.1367 z m 0,0"
     id="path39" />
  <path
     fill-rule="nonzero"
     fill="#000000"
     fill-opacity="1"
     d="m 1118.6062,264.2789 h 165.832 c 12.7383,0 23.0781,10.332 23.0781,23.082 v 157.75 c 0,12.75 -10.3398,23.0781 -23.0781,23.0781 h -165.832 c -6.1289,0 -11.9883,-2.4296 -16.3203,-6.7578 -4.3282,-4.332 -6.7578,-10.1992 -6.7578,-16.3203 v -157.75 c 0,-6.1289 2.4296,-11.9922 6.7578,-16.3203 4.332,-4.3281 10.1914,-6.7617 16.3203,-6.7617 z m 0,-7.0586 c -8,0 -15.6602,3.1797 -21.3086,8.832 -5.6602,5.6485 -8.832,13.3086 -8.832,21.3086 v 157.75 c 0,8 3.1718,15.6602 8.832,21.3086 5.6484,5.6524 13.3086,8.832 21.3086,8.832 h 165.832 c 16.6367,0 30.1289,-13.5 30.1289,-30.1406 v -157.75 c 0,-16.6406 -13.4922,-30.1406 -30.1289,-30.1406 z m 0,0"
     id="path40" />
  <path
     fill-rule="nonzero"
     fill="#000000"
     fill-opacity="1"
     d="m 94.46161,264.2789 h 165.83203 c 12.7461,0 23.07813,10.332 23.07813,23.082 v 157.75 c 0,12.75 -10.33203,23.0781 -23.07813,23.0781 H 94.46161 c -6.12109,0 -11.99218,-2.4296 -16.32031,-6.7578 -4.32422,-4.332 -6.75781,-10.1992 -6.75781,-16.3203 v -157.75 c 0,-6.1289 2.43359,-11.9922 6.75781,-16.3203 4.32813,-4.3281 10.19922,-6.7617 16.32031,-6.7617 z m 0,-7.0586 c -7.99218,0 -15.66015,3.1797 -21.30859,8.832 -5.65234,5.6485 -8.82813,13.3086 -8.82813,21.3086 v 157.75 c 0,8 3.17579,15.6602 8.82813,21.3086 5.64844,5.6524 13.31641,8.832 21.30859,8.832 h 165.83203 c 16.64454,0 30.13672,-13.5 30.13672,-30.1406 v -157.75 c 0,-16.6406 -13.49218,-30.1406 -30.13281,-30.1406 z m 0,0"
     id="path41" />
  <path
     fill-rule="nonzero"
     fill="#000000"
     fill-opacity="1"
     d="M 350.49677,264.2789 H 516.3288 c 12.74609,0 23.07813,10.332 23.07813,23.082 v 157.75 c 0,12.75 -10.33204,23.0781 -23.07813,23.0781 H 350.49677 c -6.12109,0 -11.99219,-2.4296 -16.31641,-6.7578 -4.32812,-4.332 -6.76172,-10.1992 -6.76172,-16.3203 v -157.75 c 0,-6.1289 2.4336,-11.9922 6.76172,-16.3203 4.32422,-4.3281 10.19532,-6.7617 16.31641,-6.7617 z m 0,-7.0586 c -7.99219,0 -15.66016,3.1797 -21.30859,8.832 -5.65235,5.6485 -8.82813,13.3086 -8.82813,21.3086 v 157.75 c 0,8 3.17578,15.6602 8.82813,21.3086 5.64843,5.6524 13.3164,8.832 21.30859,8.832 H 516.3288 c 16.64453,0 30.13672,-13.5 30.13672,-30.1406 v -157.75 c 0,-16.6406 -13.49219,-30.1406 -30.13281,-30.1406 z m 0,0"
     id="path42" />
  <path
     fill-rule="nonzero"
     fill="#000000"
     fill-opacity="1"
     d="m 606.53193,264.2789 h 165.83203 c 12.74609,0 23.07812,10.332 23.07812,23.082 v 157.75 c 0,12.75 -10.33203,23.0781 -23.07812,23.0781 H 606.53193 c -6.1211,0 -11.99219,-2.4296 -16.31641,-6.7578 -4.32813,-4.332 -6.76172,-10.1992 -6.76172,-16.3203 v -157.75 c 0,-6.1289 2.43359,-11.9922 6.76172,-16.3203 4.32422,-4.3281 10.19531,-6.7617 16.31641,-6.7617 z m 0,-7.0586 c -7.99219,0 -15.65625,3.1797 -21.3086,8.832 -5.65234,5.6485 -8.82812,13.3086 -8.82812,21.3086 v 157.75 c 0,8 3.17578,15.6602 8.82812,21.3086 5.65235,5.6524 13.31641,8.832 21.3086,8.832 h 165.83203 c 16.64453,0 30.13672,-13.5 30.13672,-30.1406 v -157.75 c 0,-16.6406 -13.49219,-30.1406 -30.13282,-30.1406 z m 0,0"
     id="path43" />
  <path
     fill-rule="nonzero"
     fill="#000000"
     fill-opacity="1"
     d="m 862.56708,264.2789 h 165.82812 c 12.75,0 23.0821,10.332 23.0821,23.082 v 157.75 c 0,12.75 -10.3321,23.0781 -23.0821,23.0781 H 862.56708 c -6.12109,0 -11.98828,-2.4296 -16.3164,-6.7578 -4.32813,-4.332 -6.76172,-10.1992 -6.76172,-16.3203 v -157.75 c 0,-6.1289 2.43359,-11.9922 6.76172,-16.3203 4.32812,-4.3281 10.19531,-6.7617 16.3164,-6.7617 z m 0,-7.0586 c -7.99219,0 -15.65625,3.1797 -21.30859,8.832 -5.65235,5.6485 -8.82813,13.3086 -8.82813,21.3086 v 157.75 c 0,8 3.17578,15.6602 8.82813,21.3086 5.65234,5.6524 13.3164,8.832 21.30859,8.832 h 165.82812 c 16.6524,0 30.1407,-13.5 30.1407,-30.1406 v -157.75 c 0,-16.6406 -13.4883,-30.1406 -30.1289,-30.1406 z m 0,0"
     id="path44" />
  <path
     fill-rule="nonzero"
     fill="#000000"
     fill-opacity="1"
     d="m 1374.6374,264.2789 h 165.8282 c 12.75,0 23.082,10.332 23.082,23.082 v 157.75 c 0,12.75 -10.332,23.0781 -23.082,23.0781 h -165.8282 c -6.1211,0 -11.9922,-2.4296 -16.3203,-6.7578 -4.3203,-4.332 -6.75,-10.1992 -6.75,-16.3203 v -157.75 c 0,-6.1289 2.4297,-11.9922 6.75,-16.3203 4.3281,-4.3281 10.1992,-6.7617 16.3203,-6.7617 z m 0,-7.0586 c -7.9922,0 -15.6601,3.1797 -21.3125,8.832 -5.6484,5.6485 -8.8281,13.3086 -8.8281,21.3086 v 157.75 c 0,8 3.1797,15.6602 8.8281,21.3086 5.6524,5.6524 13.3203,8.832 21.3125,8.832 h 165.8282 c 16.6523,0 30.1406,-13.5 30.1406,-30.1406 v -157.75 c 0,-16.6406 -13.4883,-30.1406 -30.1289,-30.1406 z m 0,0"
     id="path45" />
  <path
     fill-rule="nonzero"
     fill="#000000"
     fill-opacity="1"
     d="m 1630.6765,264.2789 h 165.832 c 12.7383,0 23.0781,10.332 23.0781,23.082 v 157.75 c 0,12.75 -10.3398,23.0781 -23.0781,23.0781 h -165.832 c -6.1211,0 -11.9883,-2.4296 -16.3203,-6.7578 -4.3281,-4.332 -6.7578,-10.1992 -6.7578,-16.3203 v -157.75 c 0,-6.1289 2.4297,-11.9922 6.7578,-16.3203 4.332,-4.3281 10.1992,-6.7617 16.3203,-6.7617 z m 0,-7.0586 c -8,0 -15.6602,3.1797 -21.3086,8.832 -5.6523,5.6485 -8.832,13.3086 -8.832,21.3086 v 157.75 c 0,8 3.1797,15.6602 8.832,21.3086 5.6484,5.6524 13.3086,8.832 21.3086,8.832 h 165.832 c 16.6367,0 30.1289,-13.5 30.1289,-30.1406 v -157.75 c 0,-16.6406 -13.4922,-30.1406 -30.1289,-30.1406 z m 0,0"
     id="path46" />
  <path
     fill-rule="nonzero"
     fill="#000000"
     fill-opacity="1"
     d="m 1886.7077,264.2789 h 165.8399 c 12.7383,0 23.0703,10.332 23.0703,23.082 v 157.75 c 0,12.75 -10.332,23.0781 -23.0703,23.0781 h -165.8399 c -6.1211,0 -11.9921,-2.4296 -16.3203,-6.7578 -4.3203,-4.332 -6.75,-10.1992 -6.75,-16.3203 v -157.75 c 0,-6.1289 2.4297,-11.9922 6.75,-16.3203 4.3282,-4.3281 10.1992,-6.7617 16.3203,-6.7617 z m 0,-7.0586 c -7.9921,0 -15.6523,3.1797 -21.3125,8.832 -5.6484,5.6485 -8.8203,13.3086 -8.8203,21.3086 v 157.75 c 0,8 3.1719,15.6602 8.8203,21.3086 5.6602,5.6524 13.3204,8.832 21.3125,8.832 h 165.8399 c 16.6406,0 30.1289,-13.5 30.1289,-30.1406 v -157.75 c 0,-16.6406 -13.4883,-30.1406 -30.1289,-30.1406 z m 0,0"
     id="path47" />
  <path
     fill-rule="nonzero"
     fill="#000000"
     fill-opacity="1"
     d="m 2142.7468,264.2789 h 165.8281 c 12.7422,0 23.0821,10.332 23.0821,23.082 v 157.75 c 0,12.75 -10.3399,23.0781 -23.0821,23.0781 h -165.8281 c -6.1211,0 -11.9883,-2.4296 -16.3203,-6.7578 -4.3281,-4.332 -6.7578,-10.1992 -6.7578,-16.3203 v -157.75 c 0,-6.1289 2.4297,-11.9922 6.7578,-16.3203 4.332,-4.3281 10.1992,-6.7617 16.3203,-6.7617 z m 0,-7.0586 c -8,0 -15.6602,3.1797 -21.3086,8.832 -5.6523,5.6485 -8.832,13.3086 -8.832,21.3086 v 157.75 c 0,8 3.1797,15.6602 8.832,21.3086 5.6484,5.6524 13.3086,8.832 21.3086,8.832 h 165.8281 c 16.6407,0 30.1407,-13.5 30.1407,-30.1406 v -157.75 c 0,-16.6406 -13.4883,-30.1406 -30.1407,-30.1406 z m 0,0"
     id="path48" />
  <path
     fill-rule="nonzero"
     fill="#000000"
     fill-opacity="1"
     d="m 2398.7781,264.2789 h 165.8398 c 12.7383,0 23.0703,10.332 23.0703,23.082 v 157.75 c 0,12.75 -10.332,23.0781 -23.0703,23.0781 h -165.8398 c -6.1211,0 -11.9922,-2.4296 -16.3125,-6.7578 -4.3282,-4.332 -6.7579,-10.1992 -6.7579,-16.3203 v -157.75 c 0,-6.1289 2.4297,-11.9922 6.7579,-16.3203 4.3203,-4.3281 10.1914,-6.7617 16.3125,-6.7617 z m 0,-7.0586 c -7.9922,0 -15.6524,3.1797 -21.3125,8.832 -5.6485,5.6485 -8.8204,13.3086 -8.8204,21.3086 v 157.75 c 0,8 3.1719,15.6602 8.8204,21.3086 5.6601,5.6524 13.3203,8.832 21.3125,8.832 h 165.8398 c 16.6406,0 30.1289,-13.5 30.1289,-30.1406 v -157.75 c 0,-16.6406 -13.4883,-30.1406 -30.1289,-30.1406 z m 0,0"
     id="path49" />
  <path
     fill-rule="nonzero"
     fill="#000000"
     fill-opacity="1"
     d="m 2654.8171,264.2789 h 165.8281 c 12.7422,0 23.0821,10.332 23.0821,23.082 v 157.75 c 0,12.75 -10.3399,23.0781 -23.0821,23.0781 h -165.8281 c -6.1211,0 -11.9922,-2.4296 -16.3203,-6.7578 -4.3281,-4.332 -6.7617,-10.1992 -6.7617,-16.3203 v -157.75 c 0,-6.1289 2.4336,-11.9922 6.7617,-16.3203 4.3281,-4.3281 10.1992,-6.7617 16.3203,-6.7617 z m 0,-7.0586 c -8,0 -15.6601,3.1797 -21.3086,8.832 -5.6523,5.6485 -8.832,13.3086 -8.832,21.3086 v 157.75 c 0,8 3.1797,15.6602 8.832,21.3086 5.6485,5.6524 13.3086,8.832 21.3086,8.832 h 165.8281 c 16.6524,0 30.1407,-13.5 30.1407,-30.1406 v -157.75 c 0,-16.6406 -13.4883,-30.1406 -30.1407,-30.1406 z m 0,0"
     id="path50" />
  <path
     fill-rule="nonzero"
     fill="#000000"
     fill-opacity="1"
     d="m 2910.8562,264.2789 h 165.832 c 12.7383,0 23.0703,10.332 23.0703,23.082 v 157.75 c 0,12.75 -10.332,23.0781 -23.0703,23.0781 h -165.832 c -6.1289,0 -12,-2.4296 -16.3203,-6.7578 -4.3282,-4.332 -6.7578,-10.1992 -6.7578,-16.3203 v -157.75 c 0,-6.1289 2.4296,-11.9922 6.7578,-16.3203 4.3203,-4.3281 10.1914,-6.7617 16.3203,-6.7617 z m 0,-7.0586 c -8,0 -15.6602,3.1797 -21.3203,8.832 -5.6485,5.6485 -8.8203,13.3086 -8.8203,21.3086 v 157.75 c 0,8 3.1718,15.6602 8.8203,21.3086 5.6601,5.6524 13.3203,8.832 21.3203,8.832 h 165.832 c 16.6367,0 30.1289,-13.5 30.1289,-30.1406 v -157.75 c 0,-16.6406 -13.4922,-30.1406 -30.1289,-30.1406 z m 0,0"
     id="path51" />
  <path
     fill-rule="nonzero"
     fill="#000000"
     fill-opacity="1"
     d="m 3166.8874,264.2789 h 165.8282 c 12.75,0 23.082,10.332 23.082,23.082 v 157.75 c 0,12.75 -10.332,23.0781 -23.082,23.0781 h -165.8282 c -6.1211,0 -11.9922,-2.4296 -16.3203,-6.7578 -4.3203,-4.332 -6.7617,-10.1992 -6.7617,-16.3203 v -157.75 c 0,-6.1289 2.4414,-11.9922 6.7617,-16.3203 4.3281,-4.3281 10.1992,-6.7617 16.3203,-6.7617 z m 0,-7.0586 c -7.9922,0 -15.6601,3.1797 -21.3125,8.832 -5.6484,5.6485 -8.8281,13.3086 -8.8281,21.3086 v 157.75 c 0,8 3.1797,15.6602 8.8281,21.3086 5.6524,5.6524 13.3203,8.832 21.3125,8.832 h 165.8282 c 16.6523,0 30.1406,-13.5 30.1406,-30.1406 v -157.75 c 0,-16.6406 -13.4883,-30.1406 -30.1289,-30.1406 z m 0,0"
     id="path52" />
  <path
     fill-rule="nonzero"
     fill="#000000"
     fill-opacity="1"
     d="m 3423.5671,264.2789 h 301.918 c 12.75,0 23.082,10.332 23.082,23.082 v 157.75 c 0,12.75 -10.332,23.0781 -23.082,23.0781 h -301.918 c -6.1094,0 -11.9805,-2.4296 -16.3086,-6.7578 -4.332,-4.332 -6.7617,-10.1992 -6.7617,-16.3203 v -157.75 c 0,-6.1289 2.4297,-11.9922 6.7617,-16.3203 4.3281,-4.3281 10.1992,-6.7617 16.3086,-6.7617 z m 0,-7.0586 c -7.9922,0 -15.6484,3.1797 -21.3008,8.832 -5.6484,5.6485 -8.8281,13.3086 -8.8281,21.3086 v 157.75 c 0,8 3.1797,15.6602 8.8281,21.3086 5.6524,5.6524 13.3086,8.832 21.3008,8.832 h 301.918 c 16.6523,0 30.1406,-13.5 30.1406,-30.1406 v -157.75 c 0,-16.6484 -13.4883,-30.1406 -30.1406,-30.1406 z m 0,0"
     id="path53" />
  <path
     fill-rule="nonzero"
     fill="#000000"
     fill-opacity="1"
     d="m 1565.657,763.6344 h 165.8281 c 12.7422,0 23.082,10.332 23.082,23.0742 v 157.7578 c 0,12.7422 -10.3398,23.0742 -23.082,23.0742 H 1565.657 c -6.1211,0 -11.9883,-2.4297 -16.3204,-6.7578 -4.3281,-4.3281 -6.7617,-10.1953 -6.7617,-16.3164 V 786.7086 c 0,-6.1211 2.4336,-11.9883 6.7617,-16.3164 4.3321,-4.3282 10.1993,-6.7617 16.3204,-6.7617 z m 0,-7.0586 c -8,0 -15.6602,3.1757 -21.3086,8.8281 -5.6602,5.6523 -8.8321,13.3164 -8.8321,21.3086 v 157.7578 c 0,7.9922 3.1719,15.6562 8.8321,21.3086 5.6484,5.6523 13.3086,8.8242 21.3086,8.8242 v 0 h 165.8281 c 16.6406,0 30.1406,-13.4922 30.1406,-30.1328 V 786.7125 c 0,-16.6406 -13.4883,-30.1328 -30.1406,-30.1367 v 0 z m 0,0"
     id="path54" />
  <path
     fill-rule="nonzero"
     fill="#000000"
     fill-opacity="1"
     d="m 541.51239,763.6344 h 165.83204 c 12.74609,0 23.07812,10.332 23.07812,23.0742 v 157.7578 c 0,12.7422 -10.33203,23.0742 -23.07812,23.0742 H 541.51239 c -6.12109,0 -11.98828,-2.4297 -16.3164,-6.7578 -4.32813,-4.3281 -6.75781,-10.1953 -6.75781,-16.3164 V 786.7086 c 0,-6.1211 2.42968,-11.9883 6.75781,-16.3164 4.32812,-4.3282 10.19531,-6.7617 16.3164,-6.7617 z m 0,-7.0586 c -7.99218,0 -15.65625,3.1757 -21.30859,8.8281 -5.65234,5.6523 -8.82812,13.3164 -8.82812,21.3086 v 157.7578 c 0,7.9922 3.17578,15.6562 8.82812,21.3086 5.65234,5.6523 13.31641,8.8242 21.30859,8.8242 v 0 h 165.83204 c 16.64453,0 30.13671,-13.4922 30.13671,-30.1328 V 786.7125 c 0,-16.6406 -13.49218,-30.1328 -30.13281,-30.1367 h -0.004 z m 0,0"
     id="path55" />
  <path
     fill-rule="nonzero"
     fill="#000000"
     fill-opacity="1"
     d="m 797.54755,763.6344 h 165.83982 c 12.7383,0 23.0703,10.332 23.0703,23.0742 v 157.7578 c 0,12.7422 -10.332,23.0742 -23.0703,23.0742 H 797.54755 c -6.12109,0 -11.98828,-2.4297 -16.31641,-6.7578 -4.32812,-4.3281 -6.75781,-10.1953 -6.75781,-16.3164 V 786.7086 c 0,-6.1211 2.42969,-11.9883 6.75781,-16.3164 4.32813,-4.3282 10.19532,-6.7617 16.31641,-6.7617 z m 0,-7.0586 c -7.99219,0 -15.65625,3.1757 -21.30859,8.8281 -5.65235,5.6523 -8.82813,13.3164 -8.82813,21.3086 v 157.7578 c 0,7.9922 3.17578,15.6562 8.82813,21.3086 5.65234,5.6523 13.3164,8.8242 21.30859,8.8242 v 0 h 165.83982 c 16.6407,0 30.1289,-13.4922 30.1289,-30.1328 V 786.7125 c 0,-16.6406 -13.4882,-30.1328 -30.1289,-30.1367 v 0 z m 0,0"
     id="path56" />
  <path
     fill-rule="nonzero"
     fill="#000000"
     fill-opacity="1"
     d="m 1053.5866,763.6344 h 165.8321 c 12.7383,0 23.0781,10.332 23.0781,23.0742 v 157.7578 c 0,12.7422 -10.3398,23.0742 -23.0781,23.0742 h -165.8321 c -6.1289,0 -11.9882,-2.4297 -16.3203,-6.7578 -4.3281,-4.3281 -6.7578,-10.1953 -6.7578,-16.3164 V 786.7086 c 0,-6.1211 2.4297,-11.9883 6.7578,-16.3164 4.3321,-4.3282 10.1914,-6.7617 16.3203,-6.7617 z m 0,-7.0586 c -8,0 -15.6601,3.1757 -21.3085,8.8281 -5.6524,5.6523 -8.8321,13.3164 -8.8321,21.3086 v 157.7578 c 0,7.9922 3.1797,15.6562 8.8321,21.3086 5.6484,5.6523 13.3085,8.8242 21.3085,8.8242 v 0 h 165.8321 c 16.6367,0 30.1367,-13.4922 30.1367,-30.1328 V 786.7125 c 0,-16.6406 -13.4883,-30.1328 -30.1367,-30.1367 v 0 z m 0,0"
     id="path57" />
  <path
     fill-rule="nonzero"
     fill="#000000"
     fill-opacity="1"
     d="m 1309.6179,763.6344 h 165.8398 c 12.7383,0 23.0704,10.332 23.0704,23.0742 v 157.7578 c 0,12.7422 -10.3321,23.0742 -23.0704,23.0742 h -165.8398 c -6.1211,0 -11.9922,-2.4297 -16.3125,-6.7578 -4.3281,-4.3281 -6.7578,-10.1953 -6.7578,-16.3164 V 786.7086 c 0,-6.1211 2.4297,-11.9883 6.7578,-16.3164 4.3203,-4.3282 10.1914,-6.7617 16.3125,-6.7617 z m 0,-7.0586 c -7.9922,0 -15.6602,3.1757 -21.3125,8.8281 -5.6484,5.6523 -8.8203,13.3164 -8.8203,21.3086 v 157.7578 c 0,7.9922 3.1719,15.6562 8.8203,21.3086 5.6523,5.6523 13.3203,8.8242 21.3125,8.8242 v 0 h 165.8398 c 16.6407,0 30.1289,-13.4922 30.1289,-30.1328 V 786.7125 c 0,-16.6406 -13.4882,-30.1328 -30.1289,-30.1367 v 0 z m 0,0"
     id="path58" />
  <path
     fill-rule="nonzero"
     fill="#000000"
     fill-opacity="1"
     d="m 1821.6882,763.6344 h 165.8399 c 12.7382,0 23.0703,10.332 23.0703,23.0742 v 157.7578 c 0,12.7422 -10.3321,23.0742 -23.0703,23.0742 h -165.8399 c -6.1211,0 -11.9922,-2.4297 -16.3125,-6.7578 -4.3281,-4.3281 -6.7578,-10.1953 -6.7578,-16.3164 V 786.7086 c 0,-6.1211 2.4297,-11.9883 6.7578,-16.3164 4.3203,-4.3282 10.1914,-6.7617 16.3125,-6.7617 z m 0,-7.0586 c -7.9922,0 -15.6523,3.1757 -21.3125,8.8281 -5.6484,5.6523 -8.8203,13.3164 -8.8203,21.3086 v 157.7578 c 0,7.9922 3.1719,15.6562 8.8203,21.3086 5.6602,5.6523 13.3203,8.8242 21.3125,8.8242 v 0 h 165.8399 c 16.6406,0 30.1289,-13.4922 30.1289,-30.1328 V 786.7125 c 0,-16.6406 -13.4883,-30.1328 -30.1289,-30.1367 v 0 z m 0,0"
     id="path59" />
  <path
     fill-rule="nonzero"
     fill="#000000"
     fill-opacity="1"
     d="m 2077.7273,763.6344 h 165.8281 c 12.75,0 23.082,10.332 23.082,23.0742 v 157.7578 c 0,12.7422 -10.332,23.0742 -23.082,23.0742 h -165.8281 c -6.1211,0 -11.9922,-2.4297 -16.3203,-6.7578 -4.3321,-4.3281 -6.7618,-10.1953 -6.7618,-16.3164 V 786.7086 c 0,-6.1211 2.4297,-11.9883 6.7618,-16.3164 4.3281,-4.3282 10.1992,-6.7617 16.3203,-6.7617 z m 0,-7.0586 c -8,0 -15.6602,3.1757 -21.3086,8.8281 -5.6524,5.6523 -8.8321,13.3164 -8.8321,21.3086 v 157.7578 c 0,7.9922 3.1797,15.6562 8.8321,21.3086 5.6484,5.6523 13.3086,8.8242 21.3086,8.8242 v 0 h 165.8281 c 16.6523,0 30.1406,-13.4922 30.1406,-30.1328 V 786.7125 c 0,-16.6406 -13.4883,-30.1328 -30.1406,-30.1367 v 0 z m 0,0"
     id="path60" />
  <path
     fill-rule="nonzero"
     fill="#000000"
     fill-opacity="1"
     d="m 2333.7585,763.6344 h 165.8399 c 12.7382,0 23.0703,10.332 23.0703,23.0742 v 157.7578 c 0,12.7422 -10.3321,23.0742 -23.0703,23.0742 h -165.8399 c -6.1211,0 -11.9922,-2.4297 -16.3125,-6.7578 -4.3281,-4.3281 -6.7578,-10.1953 -6.7578,-16.3164 V 786.7086 c 0,-6.1211 2.4297,-11.9883 6.7578,-16.3164 4.3203,-4.3282 10.1914,-6.7617 16.3125,-6.7617 z m 0,-7.0586 c -7.9922,0 -15.6523,3.1757 -21.3125,8.8281 -5.6406,5.6523 -8.8203,13.3164 -8.8203,21.3086 v 157.7578 c 0,7.9922 3.1797,15.6562 8.8203,21.3086 5.6602,5.6523 13.3203,8.8242 21.3125,8.8242 v 0 h 165.8399 c 16.6367,0 30.1289,-13.4922 30.1289,-30.1328 V 786.7125 c 0,-16.6406 -13.4922,-30.1328 -30.1289,-30.1367 v 0 z m 0,0"
     id="path61" />
  <path
     fill-rule="nonzero"
     fill="#000000"
     fill-opacity="1"
     d="m 2589.7976,763.6344 h 165.8281 c 12.75,0 23.082,10.332 23.082,23.0742 v 157.7578 c 0,12.7422 -10.332,23.0742 -23.082,23.0742 h -165.8281 c -6.1211,0 -11.9922,-2.4297 -16.3203,-6.7578 -4.3321,-4.3281 -6.7617,-10.1953 -6.7617,-16.3164 V 786.7086 c 0,-6.1211 2.4296,-11.9883 6.7617,-16.3164 4.3281,-4.3282 10.1992,-6.7617 16.3203,-6.7617 z m 0,-7.0586 c -7.9922,0 -15.6602,3.1757 -21.3125,8.8281 -5.6485,5.6523 -8.8281,13.3164 -8.8281,21.3086 v 157.7578 c 0,7.9922 3.1796,15.6562 8.8281,21.3086 5.6523,5.6523 13.3203,8.8242 21.3125,8.8242 v 0 h 165.8281 c 16.6524,0 30.1406,-13.4922 30.1406,-30.1328 V 786.7125 c 0,-16.6406 -13.4882,-30.1328 -30.1289,-30.1367 h -0.012 z m 0,0"
     id="path62" />
  <path
     fill-rule="nonzero"
     fill="#000000"
     fill-opacity="1"
     d="m 2845.8366,763.6344 h 165.8321 c 12.7383,0 23.0781,10.332 23.0781,23.0742 v 157.7578 c 0,12.7422 -10.3398,23.0742 -23.0781,23.0742 h -165.8321 c -6.121,0 -12,-2.4297 -16.3203,-6.7578 -4.3281,-4.3281 -6.7578,-10.1953 -6.7578,-16.3164 V 786.7086 c 0,-6.1211 2.4297,-11.9883 6.7578,-16.3164 4.3203,-4.3282 10.1993,-6.7617 16.3203,-6.7617 z m 0,-7.0586 c -8,0 -15.6601,3.1757 -21.3085,8.8281 -5.6524,5.6523 -8.8321,13.3164 -8.8321,21.3086 v 157.7578 c 0,7.9922 3.1797,15.6562 8.8321,21.3086 5.6484,5.6523 13.3085,8.8242 21.3085,8.8242 v 0 h 165.8321 c 16.6367,0 30.1367,-13.4922 30.1367,-30.1328 V 786.7125 c 0,-16.6406 -13.5,-30.1328 -30.1367,-30.1367 v 0 z m 0,0"
     id="path63" />
  <path
     fill-rule="nonzero"
     fill="#000000"
     fill-opacity="1"
     d="m 3101.8679,763.6344 h 165.8281 c 12.75,0 23.0821,10.332 23.0821,23.0742 v 157.7578 c 0,12.7422 -10.3321,23.0742 -23.0821,23.0742 h -165.8281 c -6.1211,0 -11.9922,-2.4297 -16.3203,-6.7578 -4.3203,-4.3281 -6.7617,-10.1953 -6.7617,-16.3164 V 786.7086 c 0,-6.1211 2.4414,-11.9883 6.7617,-16.3164 4.3281,-4.3282 10.1992,-6.7617 16.3203,-6.7617 z m 0,-7.0586 c -7.9922,0 -15.6602,3.1757 -21.3125,8.8281 -5.6484,5.6523 -8.8281,13.3164 -8.8281,21.3086 v 157.7578 c 0,7.9922 3.1797,15.6562 8.8281,21.3086 5.6523,5.6523 13.3203,8.8242 21.3125,8.8242 v 0 h 165.8281 c 16.6524,0 30.1406,-13.4922 30.1406,-30.1328 V 786.7125 c 0,-16.6406 -13.4882,-30.1328 -30.1289,-30.1367 h -0.012 z m 0,0"
     id="path64" />
  <path
     fill-rule="nonzero"
     fill="#000000"
     fill-opacity="1"
     d="m 3362.0359,763.6383 h 363.4492 c 12.75,0 23.082,10.332 23.082,23.0742 v 157.7578 c 0,12.7422 -10.332,23.0742 -23.082,23.0742 h -363.4492 c -6.1172,0 -11.9883,-2.4297 -16.3203,-6.7578 -4.3282,-4.3281 -6.75,-10.1953 -6.75,-16.3164 V 786.7125 c 0,-6.1211 2.4218,-11.9883 6.75,-16.3164 4.332,-4.3282 10.2031,-6.7578 16.3203,-6.7578 z m 0,-7.0625 c -7.9883,0 -15.6602,3.1757 -21.3086,8.8281 -5.6524,5.6523 -8.8203,13.3164 -8.8203,21.3086 v 157.7578 c 0,7.9922 3.1679,15.6562 8.8203,21.3086 5.6484,5.6523 13.3203,8.8281 21.3086,8.8281 h 363.4492 c 16.6523,0 30.1406,-13.4883 30.1406,-30.1328 V 786.7164 c 0,-16.6406 -13.4883,-30.1328 -30.1406,-30.1328 z m 0,0"
     id="path65" />
  <path
     fill-rule="nonzero"
     fill="#000000"
     fill-opacity="1"
     d="m 94.2038,762.4898 c 0,0 0,0 -0.004,0 z m 0.0742,0 c -0.0234,0 -0.0508,0 -0.0742,0 h 0.0898 z m -6.92188,0 h 6.91797 c 0.004,0 0.004,0 0.004,0 h 356.52734 c 12.7461,0 23.07813,10.3321 23.07813,23.0742 v 157.7579 c 0,12.746 -10.33203,23.0742 -23.07813,23.0742 h -356.39062 0.043 c -6.1211,0 -11.98828,-2.4336 -16.31641,-6.7617 -4.32422,-4.3243 -6.75781,-10.1954 -6.75781,-16.3164 V 785.5601 c 0,-6.1171 2.43359,-11.9882 6.75781,-16.3164 4.25391,-4.2539 9.99609,-6.6757 16.00391,-6.7578 h 0.0117 0.043 0.004 -0.0156 c -0.0156,0 -0.0273,0 -0.043,0 v 0 z M 94.32097,966.4 h 0.0625 z m 0.10937,-210.9688 c -7.98047,0.01 -15.63281,3.1797 -21.27734,8.8242 -4.9375,4.9375 -7.98828,11.4141 -8.67578,18.3008 -0.10156,0.9961 -0.15235,2 -0.15235,3.0078 v 157.7579 c 0,1.1484 0.0664,2.2929 0.19532,3.4218 v 0 c 0.76953,6.7305 3.79297,13.0469 8.63281,17.8828 5.64453,5.6446 13.29687,8.8204 21.27734,8.8282 h -0.10937 356.48437 c 15.52344,0 28.30469,-11.7383 29.95703,-26.8203 0.11719,-1.0899 0.17969,-2.1954 0.17969,-3.3164 V 785.5601 c 0,-0.8945 -0.0391,-1.7851 -0.11719,-2.664 h 0.0117 c -0.0156,-0.1133 -0.0273,-0.2266 -0.043,-0.3438 v 0 C 479.28576,767.318 466.4342,755.4234 450.80529,755.4234 Z m 0,0"
     id="path66" />
  <path
     fill-rule="nonzero"
     fill="#000000"
     fill-opacity="1"
     d="m 94.46161,75.5719 h 173.46485 c 12.74609,0 23.07812,10.3281 23.07812,23.0781 v 50.1406 c 0,12.75 -10.33203,23.0781 -23.07812,23.0781 H 94.46161 c -6.12109,0 -11.99218,-2.4297 -16.32031,-6.7578 -4.32422,-4.332 -6.75781,-10.1992 -6.75781,-16.3203 V 98.65 c 0,-6.1289 2.43359,-11.9883 6.75781,-16.3203 4.32813,-4.3282 10.19922,-6.7578 16.32031,-6.7578 z m 0,-7.0625 c -7.99218,0 -15.66015,3.1718 -21.30859,8.832 C 67.50068,82.9898 64.32489,90.65 64.32489,98.65 v 50.1406 c 0,8 3.17579,15.6602 8.82813,21.3086 5.64844,5.6523 13.31641,8.832 21.30859,8.832 h 173.46485 c 16.64453,0 30.13672,-13.5 30.13672,-30.1406 V 98.65 c 0,-16.6485 -13.49219,-30.1406 -30.13672,-30.1406 z m 0,0"
     id="path67" />
  <path
     fill-rule="nonzero"
     fill="#000000"
     fill-opacity="1"
     d="m 3552.0281,75.5719 h 173.457 c 12.75,0 23.082,10.3281 23.082,23.0781 v 50.1406 c 0,12.75 -10.332,23.0781 -23.082,23.0781 h -173.457 c -6.1211,0 -12,-2.4297 -16.3204,-6.7578 -4.332,-4.332 -6.7617,-10.1992 -6.7617,-16.3203 V 98.65 c 0,-6.1289 2.4297,-11.9883 6.7617,-16.3203 4.3204,-4.3282 10.1993,-6.7578 16.3204,-6.7578 z m 0,-7.0625 c -8,0 -15.6602,3.1718 -21.3125,8.832 -5.6485,5.6484 -8.8282,13.3086 -8.8282,21.3086 v 50.1406 c 0,8 3.1797,15.6602 8.8282,21.3086 5.6523,5.6523 13.3125,8.832 21.3125,8.832 h 173.457 c 16.6523,0 30.1406,-13.5 30.1406,-30.1406 V 98.65 c 0,-16.6485 -13.4883,-30.1406 -30.1406,-30.1406 z m 0,0"
     id="path68" />
  <path
     fill-rule="nonzero"
     fill="#000000"
     fill-opacity="1"
     d="m 626.3913,75.5719 h 173.46875 c 12.74609,0 23.07422,10.3281 23.07422,23.0781 v 50.1406 c 0,12.75 -10.32813,23.0781 -23.07422,23.0781 H 626.3913 c -6.11719,0 -11.98828,-2.4297 -16.31641,-6.7578 -4.32812,-4.332 -6.75781,-10.1992 -6.75781,-16.3203 V 98.65 c 0,-6.1289 2.42969,-11.9883 6.75781,-16.3203 4.32813,-4.3282 10.19922,-6.7578 16.31641,-6.7578 z m 0,-7.0625 c -7.99219,0 -15.65625,3.1718 -21.30859,8.832 -5.64844,5.6484 -8.82422,13.3086 -8.82422,21.3086 v 50.1406 c 0,8 3.17578,15.6602 8.82422,21.3086 5.65234,5.6523 13.3164,8.832 21.30859,8.832 h 173.46875 c 16.64453,0 30.13672,-13.5 30.13672,-30.1406 V 98.65 c 0,-16.6485 -13.49219,-30.1406 -30.13672,-30.1406 z m 0,0"
     id="path69" />
  <path
     fill-rule="nonzero"
     fill="#000000"
     fill-opacity="1"
     d="m 892.36005,75.5719 h 173.46485 c 12.7422,0 23.0821,10.3281 23.0821,23.0781 v 50.1406 c 0,12.75 -10.3399,23.0781 -23.0821,23.0781 H 892.36005 c -6.12109,0 -11.98828,-2.4297 -16.31641,-6.7578 -4.32812,-4.332 -6.76171,-10.1992 -6.76171,-16.3203 V 98.65 c 0,-6.1289 2.43359,-11.9883 6.76171,-16.3203 4.32813,-4.3282 10.19532,-6.7578 16.31641,-6.7578 z m 0,-7.0625 c -7.99219,0 -15.65625,3.1718 -21.30859,8.832 -5.65235,5.6484 -8.82813,13.3086 -8.82813,21.3086 v 50.1406 c 0,8 3.17578,15.6602 8.82813,21.3086 5.65234,5.6523 13.3164,8.832 21.30859,8.832 h 173.46485 c 16.6407,0 30.1328,-13.5 30.1328,-30.1406 V 98.65 c 0,-16.6485 -13.4921,-30.1406 -30.1328,-30.1406 z m 0,0"
     id="path70" />
  <path
     fill-rule="nonzero"
     fill="#000000"
     fill-opacity="1"
     d="m 1158.3249,75.5719 h 173.4727 c 12.7383,0 23.0703,10.3281 23.0703,23.0781 v 50.1406 c 0,12.75 -10.332,23.0781 -23.0703,23.0781 h -173.4727 c -6.1172,0 -11.9883,-2.4297 -16.3164,-6.7578 -4.332,-4.332 -6.7617,-10.1992 -6.7617,-16.3203 V 98.65 c 0,-6.1289 2.4297,-11.9883 6.7617,-16.3203 4.3281,-4.3282 10.1992,-6.7578 16.3164,-6.7578 z m 0,-7.0625 c -7.9883,0 -15.6562,3.1718 -21.3086,8.832 -5.6484,5.6484 -8.8281,13.3086 -8.8281,21.3086 v 50.1406 c 0,8 3.1797,15.6602 8.8281,21.3086 5.6524,5.6523 13.3203,8.832 21.3086,8.832 h 173.4727 c 16.6406,0 30.1289,-13.5 30.1289,-30.1406 V 98.65 c 0,-16.6485 -13.4883,-30.1406 -30.1289,-30.1406 z m 0,0"
     id="path71" />
  <path
     fill-rule="nonzero"
     fill="#000000"
     fill-opacity="1"
     d="m 1424.2976,75.5719 h 173.4609 c 12.75,0 23.0781,10.3281 23.0781,23.0781 v 50.1406 c 0,12.75 -10.3281,23.0781 -23.0781,23.0781 h -173.4609 c -6.1211,0 -11.9922,-2.4297 -16.3203,-6.7578 -4.3321,-4.332 -6.7617,-10.1992 -6.7617,-16.3203 V 98.65 c 0,-6.1289 2.4296,-11.9883 6.7617,-16.3203 4.3281,-4.3282 10.1992,-6.7578 16.3203,-6.7578 z m 0,-7.0625 c -7.9922,0 -15.6602,3.1718 -21.3125,8.832 -5.6485,5.6484 -8.8281,13.3086 -8.8281,21.3086 v 50.1406 c 0,8 3.1796,15.6602 8.8281,21.3086 5.6523,5.6523 13.3203,8.832 21.3125,8.832 h 173.4609 c 16.6485,0 30.1367,-13.5 30.1367,-30.1406 V 98.65 c 0,-16.6485 -13.4882,-30.1406 -30.1367,-30.1406 z m 0,0"
     id="path72" />
  <path
     fill-rule="nonzero"
     fill="#000000"
     fill-opacity="1"
     d="m 1690.2585,75.5719 h 173.4688 c 12.7383,0 23.0781,10.3281 23.0781,23.0781 v 50.1406 c 0,12.75 -10.3398,23.0781 -23.0781,23.0781 h -173.4688 c -6.1211,0 -11.9922,-2.4297 -16.3203,-6.7578 -4.3203,-4.332 -6.75,-10.1992 -6.75,-16.3203 V 98.65 c 0,-6.1289 2.4297,-11.9883 6.75,-16.3203 4.3281,-4.3282 10.1992,-6.7578 16.3203,-6.7578 z m 0,-7.0625 c -7.9922,0 -15.6523,3.1718 -21.3125,8.832 -5.6484,5.6484 -8.8203,13.3086 -8.8203,21.3086 v 50.1406 c 0,8 3.1719,15.6602 8.8203,21.3086 5.6602,5.6523 13.3203,8.832 21.3125,8.832 h 173.4688 c 16.6406,0 30.1289,-13.5 30.1289,-30.1406 V 98.65 c 0,-16.6485 -13.4883,-30.1406 -30.1289,-30.1406 z m 0,0"
     id="path73" />
  <path
     fill-rule="nonzero"
     fill="#000000"
     fill-opacity="1"
     d="m 1956.2273,75.5719 h 173.4687 c 12.7422,0 23.0703,10.3281 23.0703,23.0781 v 50.1406 c 0,12.75 -10.3281,23.0781 -23.0703,23.0781 h -173.4687 c -6.1211,0 -11.9922,-2.4297 -16.3203,-6.7578 -4.3321,-4.332 -6.7618,-10.1992 -6.7618,-16.3203 V 98.65 c 0,-6.1289 2.4297,-11.9883 6.7618,-16.3203 4.3281,-4.3282 10.1992,-6.7578 16.3203,-6.7578 z m 0,-7.0625 c -8,0 -15.6602,3.1718 -21.3086,8.832 -5.6524,5.6484 -8.8321,13.3086 -8.8321,21.3086 v 50.1406 c 0,8 3.1797,15.6602 8.8321,21.3086 5.6484,5.6523 13.3086,8.832 21.3086,8.832 h 173.4687 c 16.6406,0 30.1289,-13.5 30.1289,-30.1406 V 98.65 c 0,-16.6485 -13.4883,-30.1406 -30.1289,-30.1406 z m 0,0"
     id="path74" />
  <path
     fill-rule="nonzero"
     fill="#000000"
     fill-opacity="1"
     d="m 2222.196,75.5719 h 173.461 c 12.75,0 23.0781,10.3281 23.0781,23.0781 v 50.1406 c 0,12.75 -10.3281,23.0781 -23.0781,23.0781 h -173.461 c -6.1289,0 -12,-2.4297 -16.3203,-6.7578 -4.3281,-4.332 -6.7578,-10.1992 -6.7578,-16.3203 V 98.65 c 0,-6.1289 2.4297,-11.9883 6.7578,-16.3203 4.3203,-4.3282 10.1914,-6.7578 16.3203,-6.7578 z m 0,-7.0625 c -8,0 -15.6601,3.1718 -21.3086,8.832 -5.6601,5.6484 -8.832,13.3086 -8.832,21.3086 v 50.1406 c 0,8 3.1719,15.6602 8.832,21.3086 5.6485,5.6523 13.3086,8.832 21.3086,8.832 h 173.461 c 16.6484,0 30.1406,-13.5 30.1406,-30.1406 V 98.65 c 0,-16.6485 -13.4922,-30.1406 -30.1406,-30.1406 z m 0,0"
     id="path75" />
  <path
     fill-rule="nonzero"
     fill="#000000"
     fill-opacity="1"
     d="m 2488.157,75.5719 h 173.4687 c 12.7422,0 23.0703,10.3281 23.0703,23.0781 v 50.1406 c 0,12.75 -10.3281,23.0781 -23.0703,23.0781 H 2488.157 c -6.1211,0 -11.9883,-2.4297 -16.3204,-6.7578 -4.3203,-4.332 -6.75,-10.1992 -6.75,-16.3203 V 98.65 c 0,-6.1289 2.4297,-11.9883 6.75,-16.3203 4.3321,-4.3282 10.1993,-6.7578 16.3204,-6.7578 z m 0,-7.0625 c -7.9883,0 -15.6602,3.1718 -21.3086,8.832 -5.6524,5.6484 -8.8203,13.3086 -8.8203,21.3086 v 50.1406 c 0,8 3.1679,15.6602 8.8203,21.3086 5.6484,5.6523 13.3203,8.832 21.3086,8.832 h 173.4687 c 16.6406,0 30.1328,-13.5 30.1328,-30.1406 V 98.65 c 0,-16.6485 -13.4922,-30.1406 -30.1328,-30.1406 z m 0,0"
     id="path76" />
  <path
     fill-rule="nonzero"
     fill="#000000"
     fill-opacity="1"
     d="m 2754.1257,75.5719 h 173.4609 c 12.75,0 23.0821,10.3281 23.0821,23.0781 v 50.1406 c 0,12.75 -10.3321,23.0781 -23.0821,23.0781 h -173.4609 c -6.1172,0 -11.9883,-2.4297 -16.3203,-6.7578 -4.3281,-4.332 -6.7578,-10.1992 -6.7578,-16.3203 V 98.65 c 0,-6.1289 2.4297,-11.9883 6.7578,-16.3203 4.332,-4.3282 10.2031,-6.7578 16.3203,-6.7578 z m 0,-7.0625 c -8,0 -15.6601,3.1718 -21.3086,8.832 -5.6484,5.6484 -8.832,13.3086 -8.832,21.3086 v 50.1406 c 0,8 3.1836,15.6602 8.832,21.3086 5.6485,5.6523 13.3086,8.832 21.3086,8.832 h 173.4609 c 16.6485,0 30.1407,-13.5 30.1407,-30.1406 V 98.65 c 0,-16.6485 -13.4922,-30.1406 -30.1407,-30.1406 z m 0,0"
     id="path77" />
  <path
     fill-rule="nonzero"
     fill="#000000"
     fill-opacity="1"
     d="m 3020.0866,75.5719 h 173.4688 c 12.75,0 23.082,10.3281 23.082,23.0781 v 50.1406 c 0,12.75 -10.332,23.0781 -23.082,23.0781 h -173.4688 c -6.121,0 -11.9804,-2.4297 -16.3085,-6.7578 -4.3321,-4.332 -6.7618,-10.1992 -6.7618,-16.3203 V 98.65 c 0,-6.1289 2.4297,-11.9883 6.7618,-16.3203 4.3281,-4.3282 10.1875,-6.7578 16.3085,-6.7578 z m 0,-7.0625 c -7.9882,0 -15.6484,3.1718 -21.3007,8.832 -5.6602,5.6484 -8.8282,13.3086 -8.8282,21.3086 v 50.1406 c 0,8 3.168,15.6602 8.8282,21.3086 5.6523,5.6523 13.3125,8.832 21.3007,8.832 h 173.4688 c 16.6406,0 30.1328,-13.5 30.1328,-30.1406 V 98.65 c 0,-16.6485 -13.4922,-30.1406 -30.1328,-30.1406 z m 0,0"
     id="path78" />
  <path
     fill-rule="nonzero"
     fill="#000000"
     fill-opacity="1"
     d="m 3286.0554,75.5719 h 173.4727 c 12.7382,0 23.0703,10.3281 23.0703,23.0781 v 50.1406 c 0,12.75 -10.3321,23.0781 -23.0703,23.0781 h -173.4727 c -6.1172,0 -11.9883,-2.4297 -16.3203,-6.7578 -4.3281,-4.332 -6.7578,-10.1992 -6.7578,-16.3203 V 98.65 c 0,-6.1289 2.4297,-11.9883 6.7578,-16.3203 4.332,-4.3282 10.2031,-6.7578 16.3203,-6.7578 z m 0,-7.0625 c -7.9883,0 -15.6602,3.1718 -21.3086,8.832 -5.6484,5.6484 -8.8203,13.3086 -8.8203,21.3086 v 50.1406 c 0,8 3.1719,15.6602 8.8203,21.3086 5.6484,5.6523 13.3203,8.832 21.3086,8.832 h 173.4727 c 16.6406,0 30.1289,-13.5 30.1289,-30.1406 V 98.65 c 0,-16.6485 -13.4883,-30.1406 -30.1289,-30.1406 z m 0,0"
     id="path79" />
  <path
     fill-rule="nonzero"
     fill="#000000"
     fill-opacity="1"
     d="m 360.42646,75.5719 h 173.46875 c 12.74218,0 23.07422,10.3281 23.07422,23.0781 v 50.1406 c 0,12.75 -10.33204,23.0781 -23.07422,23.0781 H 360.42646 c -6.1211,0 -11.98828,-2.4297 -16.31641,-6.7578 -4.32812,-4.332 -6.75781,-10.1992 -6.75781,-16.3203 V 98.65 c 0,-6.1289 2.42969,-11.9883 6.75781,-16.3203 4.32813,-4.3282 10.19531,-6.7578 16.31641,-6.7578 z m 0,-7.0625 c -7.99219,0 -15.65625,3.1718 -21.3086,8.832 -5.65234,5.6484 -8.82812,13.3086 -8.82812,21.3086 v 50.1406 c 0,8 3.17578,15.6602 8.82812,21.3086 5.65235,5.6523 13.31641,8.832 21.3086,8.832 h 173.46875 c 16.64062,0 30.13281,-13.5 30.13281,-30.1406 V 98.65 c 0,-16.6485 -13.49219,-30.1406 -30.13281,-30.1406 z m 0,0"
     id="path80" />
  <metadata
     id="metadata355">
    <rdf:RDF>
      <cc:License
         rdf:about="http://artlibre.org/licence/lal">
        <cc:permits
           rdf:resource="http://creativecommons.org/ns#Reproduction" />
        <cc:permits
           rdf:resource="http://creativecommons.org/ns#Distribution" />
        <cc:permits
           rdf:resource="http://creativecommons.org/ns#DerivativeWorks" />
        <cc:requires
           rdf:resource="http://creativecommons.org/ns#ShareAlike" />
        <cc:requires
           rdf:resource="http://creativecommons.org/ns#Notice" />
        <cc:requires
           rdf:resource="http://creativecommons.org/ns#Attribution" />
      </cc:License>
      <cc:Work
         rdf:about="">
        <cc:license
           rdf:resource="http://artlibre.org/licence/lal" />
      </cc:Work>
    </rdf:RDF>
  </metadata>
</svg>
